G75*
%MOIN*%
%OFA0B0*%
%FSLAX25Y25*%
%IPPOS*%
%LPD*%
%AMOC8*
5,1,8,0,0,1.08239X$1,22.5*
%
%ADD10R,0.28937X0.06496*%
%ADD11R,0.14567X0.03543*%
%ADD12C,0.05937*%
%ADD13C,0.01956*%
%ADD14C,0.01887*%
%ADD15C,0.01575*%
%ADD16R,0.06496X0.06496*%
%ADD17C,0.06496*%
%ADD18C,0.01811*%
%ADD19R,0.01181X0.06299*%
%ADD20R,0.06299X0.01181*%
%ADD21R,0.02165X0.04724*%
%ADD22R,0.03150X0.08661*%
%ADD23R,0.05512X0.07874*%
%ADD24R,0.03937X0.07874*%
%ADD25R,0.03937X0.05906*%
%ADD26R,0.11417X0.08071*%
%ADD27R,0.06150X0.01102*%
%ADD28R,0.01102X0.06150*%
%ADD29R,0.07400X0.07400*%
%ADD30OC8,0.07400*%
%ADD31R,0.04000X0.10000*%
%ADD32R,0.01378X0.03150*%
%ADD33C,0.01959*%
%ADD34R,0.07480X0.04331*%
%ADD35C,0.07400*%
%ADD36R,0.07874X0.07874*%
%ADD37R,0.08268X0.05512*%
%ADD38R,0.02756X0.04921*%
%ADD39R,0.03962X0.03962*%
%ADD40C,0.01600*%
%ADD41C,0.01181*%
%ADD42C,0.01969*%
%ADD43C,0.00600*%
%ADD44C,0.03100*%
%ADD45C,0.03937*%
D10*
X0280245Y0249339D03*
D11*
X0417745Y0320894D03*
D12*
X0306918Y0252387D02*
X0306918Y0246450D01*
X0296918Y0246450D02*
X0296918Y0252387D01*
D13*
X0299786Y0280790D02*
X0299786Y0283086D01*
X0303420Y0283086D01*
X0303420Y0280790D01*
X0299786Y0280790D01*
X0299786Y0282745D02*
X0303420Y0282745D01*
X0303420Y0287837D02*
X0303420Y0290133D01*
X0303420Y0287837D02*
X0299786Y0287837D01*
X0299786Y0290133D01*
X0303420Y0290133D01*
X0303420Y0289792D02*
X0299786Y0289792D01*
X0313656Y0290133D02*
X0313656Y0287837D01*
X0310022Y0287837D01*
X0310022Y0290133D01*
X0313656Y0290133D01*
X0313656Y0289792D02*
X0310022Y0289792D01*
X0310022Y0283086D02*
X0310022Y0280790D01*
X0310022Y0283086D02*
X0313656Y0283086D01*
X0313656Y0280790D01*
X0310022Y0280790D01*
X0310022Y0282745D02*
X0313656Y0282745D01*
X0285416Y0301656D02*
X0285416Y0303952D01*
X0289050Y0303952D01*
X0289050Y0301656D01*
X0285416Y0301656D01*
X0285416Y0303611D02*
X0289050Y0303611D01*
X0289050Y0308703D02*
X0289050Y0310999D01*
X0289050Y0308703D02*
X0285416Y0308703D01*
X0285416Y0310999D01*
X0289050Y0310999D01*
X0289050Y0310658D02*
X0285416Y0310658D01*
X0291026Y0327436D02*
X0293322Y0327436D01*
X0293322Y0323802D01*
X0291026Y0323802D01*
X0291026Y0327436D01*
X0291026Y0325757D02*
X0293322Y0325757D01*
X0298073Y0323802D02*
X0300369Y0323802D01*
X0298073Y0323802D02*
X0298073Y0327436D01*
X0300369Y0327436D01*
X0300369Y0323802D01*
X0300369Y0325757D02*
X0298073Y0325757D01*
X0305790Y0344956D02*
X0308086Y0344956D01*
X0308086Y0341322D01*
X0305790Y0341322D01*
X0305790Y0344956D01*
X0305790Y0343277D02*
X0308086Y0343277D01*
X0312837Y0341322D02*
X0315133Y0341322D01*
X0312837Y0341322D02*
X0312837Y0344956D01*
X0315133Y0344956D01*
X0315133Y0341322D01*
X0315133Y0343277D02*
X0312837Y0343277D01*
X0365829Y0353420D02*
X0368125Y0353420D01*
X0368125Y0349786D01*
X0365829Y0349786D01*
X0365829Y0353420D01*
X0365829Y0351741D02*
X0368125Y0351741D01*
X0372876Y0349786D02*
X0375172Y0349786D01*
X0372876Y0349786D02*
X0372876Y0353420D01*
X0375172Y0353420D01*
X0375172Y0349786D01*
X0375172Y0351741D02*
X0372876Y0351741D01*
X0410507Y0336393D02*
X0410507Y0334097D01*
X0406873Y0334097D01*
X0406873Y0336393D01*
X0410507Y0336393D01*
X0410507Y0336052D02*
X0406873Y0336052D01*
X0406873Y0329346D02*
X0406873Y0327050D01*
X0406873Y0329346D02*
X0410507Y0329346D01*
X0410507Y0327050D01*
X0406873Y0327050D01*
X0406873Y0329005D02*
X0410507Y0329005D01*
X0416518Y0329346D02*
X0416518Y0327050D01*
X0416518Y0329346D02*
X0420152Y0329346D01*
X0420152Y0327050D01*
X0416518Y0327050D01*
X0416518Y0329005D02*
X0420152Y0329005D01*
X0420152Y0334097D02*
X0420152Y0336393D01*
X0420152Y0334097D02*
X0416518Y0334097D01*
X0416518Y0336393D01*
X0420152Y0336393D01*
X0420152Y0336052D02*
X0416518Y0336052D01*
X0418782Y0360507D02*
X0421078Y0360507D01*
X0421078Y0356873D01*
X0418782Y0356873D01*
X0418782Y0360507D01*
X0418782Y0358828D02*
X0421078Y0358828D01*
X0425829Y0356873D02*
X0428125Y0356873D01*
X0425829Y0356873D02*
X0425829Y0360507D01*
X0428125Y0360507D01*
X0428125Y0356873D01*
X0428125Y0358828D02*
X0425829Y0358828D01*
X0408937Y0401149D02*
X0407314Y0402772D01*
X0409883Y0405341D01*
X0411506Y0403718D01*
X0408937Y0401149D01*
X0407646Y0403104D02*
X0410892Y0403104D01*
X0410165Y0405059D02*
X0409601Y0405059D01*
X0406523Y0408702D02*
X0404900Y0410325D01*
X0406523Y0408702D02*
X0403954Y0406133D01*
X0402331Y0407756D01*
X0404900Y0410325D01*
X0405909Y0408088D02*
X0402663Y0408088D01*
X0404618Y0410043D02*
X0405182Y0410043D01*
X0387869Y0284621D02*
X0387869Y0282325D01*
X0384235Y0282325D01*
X0384235Y0284621D01*
X0387869Y0284621D01*
X0387869Y0284280D02*
X0384235Y0284280D01*
X0384235Y0277574D02*
X0384235Y0275278D01*
X0384235Y0277574D02*
X0387869Y0277574D01*
X0387869Y0275278D01*
X0384235Y0275278D01*
X0384235Y0277233D02*
X0387869Y0277233D01*
X0376747Y0263566D02*
X0374451Y0263566D01*
X0374451Y0267200D01*
X0376747Y0267200D01*
X0376747Y0263566D01*
X0376747Y0265521D02*
X0374451Y0265521D01*
X0369700Y0267200D02*
X0367404Y0267200D01*
X0369700Y0267200D02*
X0369700Y0263566D01*
X0367404Y0263566D01*
X0367404Y0267200D01*
X0367404Y0265521D02*
X0369700Y0265521D01*
X0360999Y0263566D02*
X0358703Y0263566D01*
X0358703Y0267200D01*
X0360999Y0267200D01*
X0360999Y0263566D01*
X0360999Y0265521D02*
X0358703Y0265521D01*
X0353952Y0267200D02*
X0351656Y0267200D01*
X0353952Y0267200D02*
X0353952Y0263566D01*
X0351656Y0263566D01*
X0351656Y0267200D01*
X0351656Y0265521D02*
X0353952Y0265521D01*
X0409883Y0208495D02*
X0411506Y0210118D01*
X0409883Y0208495D02*
X0407314Y0211064D01*
X0408937Y0212687D01*
X0411506Y0210118D01*
X0411174Y0210450D02*
X0407928Y0210450D01*
X0408655Y0212405D02*
X0409219Y0212405D01*
X0403954Y0207704D02*
X0402331Y0206081D01*
X0403954Y0207704D02*
X0406523Y0205135D01*
X0404900Y0203512D01*
X0402331Y0206081D01*
X0402945Y0205467D02*
X0406191Y0205467D01*
X0404236Y0207422D02*
X0403672Y0207422D01*
X0418782Y0256963D02*
X0421078Y0256963D01*
X0421078Y0253329D01*
X0418782Y0253329D01*
X0418782Y0256963D01*
X0418782Y0255284D02*
X0421078Y0255284D01*
X0425829Y0253329D02*
X0428125Y0253329D01*
X0425829Y0253329D02*
X0425829Y0256963D01*
X0428125Y0256963D01*
X0428125Y0253329D01*
X0428125Y0255284D02*
X0425829Y0255284D01*
X0276354Y0279511D02*
X0274058Y0279511D01*
X0274058Y0283145D01*
X0276354Y0283145D01*
X0276354Y0279511D01*
X0276354Y0281466D02*
X0274058Y0281466D01*
X0269306Y0283145D02*
X0267010Y0283145D01*
X0269306Y0283145D02*
X0269306Y0279511D01*
X0267010Y0279511D01*
X0267010Y0283145D01*
X0267010Y0281466D02*
X0269306Y0281466D01*
X0247613Y0275967D02*
X0245317Y0275967D01*
X0245317Y0279601D01*
X0247613Y0279601D01*
X0247613Y0275967D01*
X0247613Y0277922D02*
X0245317Y0277922D01*
X0240566Y0279601D02*
X0238270Y0279601D01*
X0240566Y0279601D02*
X0240566Y0275967D01*
X0238270Y0275967D01*
X0238270Y0279601D01*
X0238270Y0277922D02*
X0240566Y0277922D01*
X0240763Y0269759D02*
X0238467Y0269759D01*
X0240763Y0269759D02*
X0240763Y0266125D01*
X0238467Y0266125D01*
X0238467Y0269759D01*
X0238467Y0268080D02*
X0240763Y0268080D01*
X0245514Y0266125D02*
X0247810Y0266125D01*
X0245514Y0266125D02*
X0245514Y0269759D01*
X0247810Y0269759D01*
X0247810Y0266125D01*
X0247810Y0268080D02*
X0245514Y0268080D01*
X0239837Y0258440D02*
X0239837Y0256144D01*
X0236203Y0256144D01*
X0236203Y0258440D01*
X0239837Y0258440D01*
X0239837Y0258099D02*
X0236203Y0258099D01*
X0236203Y0251393D02*
X0236203Y0249097D01*
X0236203Y0251393D02*
X0239837Y0251393D01*
X0239837Y0249097D01*
X0236203Y0249097D01*
X0236203Y0251052D02*
X0239837Y0251052D01*
X0216511Y0265731D02*
X0214215Y0265731D01*
X0214215Y0269365D01*
X0216511Y0269365D01*
X0216511Y0265731D01*
X0216511Y0267686D02*
X0214215Y0267686D01*
X0209464Y0269365D02*
X0207168Y0269365D01*
X0209464Y0269365D02*
X0209464Y0265731D01*
X0207168Y0265731D01*
X0207168Y0269365D01*
X0207168Y0267686D02*
X0209464Y0267686D01*
X0209464Y0285310D02*
X0207168Y0285310D01*
X0209464Y0285310D02*
X0209464Y0281676D01*
X0207168Y0281676D01*
X0207168Y0285310D01*
X0207168Y0283631D02*
X0209464Y0283631D01*
X0214215Y0281676D02*
X0216511Y0281676D01*
X0214215Y0281676D02*
X0214215Y0285310D01*
X0216511Y0285310D01*
X0216511Y0281676D01*
X0216511Y0283631D02*
X0214215Y0283631D01*
X0195054Y0253329D02*
X0192758Y0253329D01*
X0192758Y0256963D01*
X0195054Y0256963D01*
X0195054Y0253329D01*
X0195054Y0255284D02*
X0192758Y0255284D01*
X0188007Y0256963D02*
X0185711Y0256963D01*
X0188007Y0256963D02*
X0188007Y0253329D01*
X0185711Y0253329D01*
X0185711Y0256963D01*
X0185711Y0255284D02*
X0188007Y0255284D01*
X0204900Y0212687D02*
X0206523Y0211064D01*
X0203954Y0208495D01*
X0202331Y0210118D01*
X0204900Y0212687D01*
X0205909Y0210450D02*
X0202663Y0210450D01*
X0204618Y0212405D02*
X0205182Y0212405D01*
X0207314Y0205135D02*
X0208937Y0203512D01*
X0207314Y0205135D02*
X0209883Y0207704D01*
X0211506Y0206081D01*
X0208937Y0203512D01*
X0207646Y0205467D02*
X0210892Y0205467D01*
X0210165Y0207422D02*
X0209601Y0207422D01*
X0195054Y0356873D02*
X0192758Y0356873D01*
X0192758Y0360507D01*
X0195054Y0360507D01*
X0195054Y0356873D01*
X0195054Y0358828D02*
X0192758Y0358828D01*
X0188007Y0360507D02*
X0185711Y0360507D01*
X0188007Y0360507D02*
X0188007Y0356873D01*
X0185711Y0356873D01*
X0185711Y0360507D01*
X0185711Y0358828D02*
X0188007Y0358828D01*
X0202331Y0403718D02*
X0203954Y0405341D01*
X0206523Y0402772D01*
X0204900Y0401149D01*
X0202331Y0403718D01*
X0202945Y0403104D02*
X0206191Y0403104D01*
X0204236Y0405059D02*
X0203672Y0405059D01*
X0209883Y0406133D02*
X0211506Y0407756D01*
X0209883Y0406133D02*
X0207314Y0408702D01*
X0208937Y0410325D01*
X0211506Y0407756D01*
X0211174Y0408088D02*
X0207928Y0408088D01*
X0208655Y0410043D02*
X0209219Y0410043D01*
D14*
X0444613Y0380956D02*
X0446427Y0380956D01*
X0446427Y0378944D01*
X0444613Y0378944D01*
X0444613Y0380956D01*
X0444613Y0380830D02*
X0446427Y0380830D01*
X0452842Y0378944D02*
X0454656Y0378944D01*
X0452842Y0378944D02*
X0452842Y0380956D01*
X0454656Y0380956D01*
X0454656Y0378944D01*
X0454656Y0380830D02*
X0452842Y0380830D01*
X0452842Y0233077D02*
X0454656Y0233077D01*
X0452842Y0233077D02*
X0452842Y0235089D01*
X0454656Y0235089D01*
X0454656Y0233077D01*
X0454656Y0234963D02*
X0452842Y0234963D01*
X0446427Y0235089D02*
X0444613Y0235089D01*
X0446427Y0235089D02*
X0446427Y0233077D01*
X0444613Y0233077D01*
X0444613Y0235089D01*
X0444613Y0234963D02*
X0446427Y0234963D01*
D15*
X0423529Y0203517D02*
X0421164Y0201152D01*
X0420049Y0202267D01*
X0422414Y0204632D01*
X0423529Y0203517D01*
X0422738Y0202726D02*
X0420508Y0202726D01*
X0422082Y0204300D02*
X0422746Y0204300D01*
X0413144Y0195362D02*
X0410779Y0192997D01*
X0413144Y0195362D02*
X0414259Y0194247D01*
X0411894Y0191882D01*
X0410779Y0192997D01*
X0411238Y0193456D02*
X0413468Y0193456D01*
X0413476Y0195030D02*
X0412812Y0195030D01*
X0201942Y0191882D02*
X0199577Y0194247D01*
X0200692Y0195362D01*
X0203057Y0192997D01*
X0201942Y0191882D01*
X0202598Y0193456D02*
X0200368Y0193456D01*
X0200360Y0195030D02*
X0201024Y0195030D01*
X0193787Y0202267D02*
X0191422Y0204632D01*
X0193787Y0202267D02*
X0192672Y0201152D01*
X0190307Y0203517D01*
X0191422Y0204632D01*
X0191098Y0202726D02*
X0193328Y0202726D01*
X0191754Y0204300D02*
X0191090Y0204300D01*
X0190307Y0410319D02*
X0192672Y0412684D01*
X0193787Y0411569D01*
X0191422Y0409204D01*
X0190307Y0410319D01*
X0190766Y0410778D02*
X0192996Y0410778D01*
X0193004Y0412352D02*
X0192340Y0412352D01*
X0200692Y0418475D02*
X0203057Y0420840D01*
X0200692Y0418475D02*
X0199577Y0419590D01*
X0201942Y0421955D01*
X0203057Y0420840D01*
X0202266Y0420049D02*
X0200036Y0420049D01*
X0201610Y0421623D02*
X0202274Y0421623D01*
X0411894Y0421955D02*
X0414259Y0419590D01*
X0413144Y0418475D01*
X0410779Y0420840D01*
X0411894Y0421955D01*
X0411570Y0420049D02*
X0413800Y0420049D01*
X0412226Y0421623D02*
X0411562Y0421623D01*
X0420049Y0411569D02*
X0422414Y0409204D01*
X0420049Y0411569D02*
X0421164Y0412684D01*
X0423529Y0410319D01*
X0422414Y0409204D01*
X0423070Y0410778D02*
X0420840Y0410778D01*
X0420832Y0412352D02*
X0421496Y0412352D01*
D16*
X0351524Y0370816D03*
X0263611Y0249359D03*
D17*
X0253611Y0249359D03*
X0261524Y0370816D03*
X0271524Y0370816D03*
X0281524Y0370816D03*
X0291524Y0370816D03*
X0301524Y0370816D03*
X0311524Y0370816D03*
X0321524Y0370816D03*
X0331524Y0370816D03*
X0341524Y0370816D03*
D18*
X0332253Y0341328D02*
X0330441Y0341328D01*
X0330441Y0344950D01*
X0332253Y0344950D01*
X0332253Y0341328D01*
X0332253Y0343138D02*
X0330441Y0343138D01*
X0330441Y0344948D02*
X0332253Y0344948D01*
X0324734Y0344950D02*
X0322922Y0344950D01*
X0324734Y0344950D02*
X0324734Y0341328D01*
X0322922Y0341328D01*
X0322922Y0344950D01*
X0322922Y0343138D02*
X0324734Y0343138D01*
X0324734Y0344948D02*
X0322922Y0344948D01*
X0328414Y0298789D02*
X0328414Y0296977D01*
X0324792Y0296977D01*
X0324792Y0298789D01*
X0328414Y0298789D01*
X0328414Y0298787D02*
X0324792Y0298787D01*
X0324792Y0291269D02*
X0324792Y0289457D01*
X0324792Y0291269D02*
X0328414Y0291269D01*
X0328414Y0289457D01*
X0324792Y0289457D01*
X0324792Y0291267D02*
X0328414Y0291267D01*
X0334241Y0291269D02*
X0334241Y0289457D01*
X0334241Y0291269D02*
X0337863Y0291269D01*
X0337863Y0289457D01*
X0334241Y0289457D01*
X0334241Y0291267D02*
X0337863Y0291267D01*
X0337863Y0296977D02*
X0337863Y0298789D01*
X0337863Y0296977D02*
X0334241Y0296977D01*
X0334241Y0298789D01*
X0337863Y0298789D01*
X0337863Y0298787D02*
X0334241Y0298787D01*
X0412076Y0255088D02*
X0412076Y0253276D01*
X0408454Y0253276D01*
X0408454Y0255088D01*
X0412076Y0255088D01*
X0412076Y0255086D02*
X0408454Y0255086D01*
X0408454Y0247568D02*
X0408454Y0245756D01*
X0408454Y0247568D02*
X0412076Y0247568D01*
X0412076Y0245756D01*
X0408454Y0245756D01*
X0408454Y0247566D02*
X0412076Y0247566D01*
X0418788Y0248493D02*
X0420600Y0248493D01*
X0420600Y0244871D01*
X0418788Y0244871D01*
X0418788Y0248493D01*
X0418788Y0246681D02*
X0420600Y0246681D01*
X0420600Y0248491D02*
X0418788Y0248491D01*
X0426307Y0244871D02*
X0428119Y0244871D01*
X0426307Y0244871D02*
X0426307Y0248493D01*
X0428119Y0248493D01*
X0428119Y0244871D01*
X0428119Y0246681D02*
X0426307Y0246681D01*
X0426307Y0248491D02*
X0428119Y0248491D01*
X0445166Y0245343D02*
X0446978Y0245343D01*
X0446978Y0241721D01*
X0445166Y0241721D01*
X0445166Y0245343D01*
X0445166Y0243531D02*
X0446978Y0243531D01*
X0446978Y0245341D02*
X0445166Y0245341D01*
X0452685Y0241721D02*
X0454497Y0241721D01*
X0452685Y0241721D02*
X0452685Y0245343D01*
X0454497Y0245343D01*
X0454497Y0241721D01*
X0454497Y0243531D02*
X0452685Y0243531D01*
X0452685Y0245341D02*
X0454497Y0245341D01*
X0408454Y0358748D02*
X0408454Y0360560D01*
X0412076Y0360560D01*
X0412076Y0358748D01*
X0408454Y0358748D01*
X0408454Y0360558D02*
X0412076Y0360558D01*
X0412076Y0366268D02*
X0412076Y0368080D01*
X0412076Y0366268D02*
X0408454Y0366268D01*
X0408454Y0368080D01*
X0412076Y0368080D01*
X0412076Y0368078D02*
X0408454Y0368078D01*
X0418788Y0368965D02*
X0420600Y0368965D01*
X0420600Y0365343D01*
X0418788Y0365343D01*
X0418788Y0368965D01*
X0418788Y0367153D02*
X0420600Y0367153D01*
X0420600Y0368963D02*
X0418788Y0368963D01*
X0426307Y0365343D02*
X0428119Y0365343D01*
X0426307Y0365343D02*
X0426307Y0368965D01*
X0428119Y0368965D01*
X0428119Y0365343D01*
X0428119Y0367153D02*
X0426307Y0367153D01*
X0426307Y0368963D02*
X0428119Y0368963D01*
X0445363Y0372312D02*
X0447175Y0372312D01*
X0447175Y0368690D01*
X0445363Y0368690D01*
X0445363Y0372312D01*
X0445363Y0370500D02*
X0447175Y0370500D01*
X0447175Y0372310D02*
X0445363Y0372310D01*
X0452882Y0368690D02*
X0454694Y0368690D01*
X0452882Y0368690D02*
X0452882Y0372312D01*
X0454694Y0372312D01*
X0454694Y0368690D01*
X0454694Y0370500D02*
X0452882Y0370500D01*
X0452882Y0372310D02*
X0454694Y0372310D01*
X0230776Y0332450D02*
X0230776Y0330638D01*
X0227154Y0330638D01*
X0227154Y0332450D01*
X0230776Y0332450D01*
X0230776Y0332448D02*
X0227154Y0332448D01*
X0222115Y0332450D02*
X0222115Y0330638D01*
X0218493Y0330638D01*
X0218493Y0332450D01*
X0222115Y0332450D01*
X0222115Y0332448D02*
X0218493Y0332448D01*
X0213847Y0332450D02*
X0213847Y0330638D01*
X0210225Y0330638D01*
X0210225Y0332450D01*
X0213847Y0332450D01*
X0213847Y0332448D02*
X0210225Y0332448D01*
X0210225Y0324930D02*
X0210225Y0323118D01*
X0210225Y0324930D02*
X0213847Y0324930D01*
X0213847Y0323118D01*
X0210225Y0323118D01*
X0210225Y0324928D02*
X0213847Y0324928D01*
X0218493Y0324930D02*
X0218493Y0323118D01*
X0218493Y0324930D02*
X0222115Y0324930D01*
X0222115Y0323118D01*
X0218493Y0323118D01*
X0218493Y0324928D02*
X0222115Y0324928D01*
X0227154Y0324930D02*
X0227154Y0323118D01*
X0227154Y0324930D02*
X0230776Y0324930D01*
X0230776Y0323118D01*
X0227154Y0323118D01*
X0227154Y0324928D02*
X0230776Y0324928D01*
X0201761Y0358748D02*
X0201761Y0360560D01*
X0205383Y0360560D01*
X0205383Y0358748D01*
X0201761Y0358748D01*
X0201761Y0360558D02*
X0205383Y0360558D01*
X0205383Y0366268D02*
X0205383Y0368080D01*
X0205383Y0366268D02*
X0201761Y0366268D01*
X0201761Y0368080D01*
X0205383Y0368080D01*
X0205383Y0368078D02*
X0201761Y0368078D01*
X0195049Y0365343D02*
X0193237Y0365343D01*
X0193237Y0368965D01*
X0195049Y0368965D01*
X0195049Y0365343D01*
X0195049Y0367153D02*
X0193237Y0367153D01*
X0193237Y0368963D02*
X0195049Y0368963D01*
X0187529Y0368965D02*
X0185717Y0368965D01*
X0187529Y0368965D02*
X0187529Y0365343D01*
X0185717Y0365343D01*
X0185717Y0368965D01*
X0185717Y0367153D02*
X0187529Y0367153D01*
X0187529Y0368963D02*
X0185717Y0368963D01*
X0205383Y0255088D02*
X0205383Y0253276D01*
X0201761Y0253276D01*
X0201761Y0255088D01*
X0205383Y0255088D01*
X0205383Y0255086D02*
X0201761Y0255086D01*
X0201761Y0247568D02*
X0201761Y0245756D01*
X0201761Y0247568D02*
X0205383Y0247568D01*
X0205383Y0245756D01*
X0201761Y0245756D01*
X0201761Y0247566D02*
X0205383Y0247566D01*
X0195049Y0244871D02*
X0193237Y0244871D01*
X0193237Y0248493D01*
X0195049Y0248493D01*
X0195049Y0244871D01*
X0195049Y0246681D02*
X0193237Y0246681D01*
X0193237Y0248491D02*
X0195049Y0248491D01*
X0187529Y0248493D02*
X0185717Y0248493D01*
X0187529Y0248493D02*
X0187529Y0244871D01*
X0185717Y0244871D01*
X0185717Y0248493D01*
X0185717Y0246681D02*
X0187529Y0246681D01*
X0187529Y0248491D02*
X0185717Y0248491D01*
D19*
X0301997Y0297863D03*
X0303965Y0297863D03*
X0305934Y0297863D03*
X0307902Y0297863D03*
X0309871Y0297863D03*
X0311839Y0297863D03*
X0311839Y0315973D03*
X0309871Y0315973D03*
X0307902Y0315973D03*
X0305934Y0315973D03*
X0303965Y0315973D03*
X0301997Y0315973D03*
D20*
X0297863Y0311839D03*
X0297863Y0309871D03*
X0297863Y0307902D03*
X0297863Y0305934D03*
X0297863Y0303965D03*
X0297863Y0301997D03*
X0315973Y0301997D03*
X0315973Y0303965D03*
X0315973Y0305934D03*
X0315973Y0307902D03*
X0315973Y0309871D03*
X0315973Y0311839D03*
D21*
X0261209Y0281328D03*
X0253729Y0281328D03*
X0253729Y0271091D03*
X0257469Y0271091D03*
X0261209Y0271091D03*
D22*
G36*
X0242017Y0232350D02*
X0239790Y0230123D01*
X0233667Y0236246D01*
X0235894Y0238473D01*
X0242017Y0232350D01*
G37*
G36*
X0234500Y0224834D02*
X0232273Y0222607D01*
X0226150Y0228730D01*
X0228377Y0230957D01*
X0234500Y0224834D01*
G37*
G36*
X0377943Y0238473D02*
X0380170Y0236246D01*
X0374047Y0230123D01*
X0371820Y0232350D01*
X0377943Y0238473D01*
G37*
G36*
X0385459Y0230957D02*
X0387686Y0228730D01*
X0381563Y0222607D01*
X0379336Y0224834D01*
X0385459Y0230957D01*
G37*
G36*
X0371820Y0381486D02*
X0374047Y0383713D01*
X0380170Y0377590D01*
X0377943Y0375363D01*
X0371820Y0381486D01*
G37*
G36*
X0379336Y0389002D02*
X0381563Y0391229D01*
X0387686Y0385106D01*
X0385459Y0382879D01*
X0379336Y0389002D01*
G37*
G36*
X0235894Y0375363D02*
X0233667Y0377590D01*
X0239790Y0383713D01*
X0242017Y0381486D01*
X0235894Y0375363D01*
G37*
G36*
X0228377Y0382879D02*
X0226150Y0385106D01*
X0232273Y0391229D01*
X0234500Y0389002D01*
X0228377Y0382879D01*
G37*
D23*
X0227351Y0315580D03*
X0213178Y0315580D03*
X0213178Y0298257D03*
X0227351Y0298257D03*
D24*
X0220265Y0298257D03*
X0220265Y0315580D03*
D25*
G36*
X0210217Y0379113D02*
X0207434Y0381896D01*
X0211609Y0386071D01*
X0214392Y0383288D01*
X0210217Y0379113D01*
G37*
G36*
X0204927Y0384402D02*
X0202144Y0387185D01*
X0206319Y0391360D01*
X0209102Y0388577D01*
X0204927Y0384402D01*
G37*
G36*
X0207434Y0231940D02*
X0210217Y0234723D01*
X0214392Y0230548D01*
X0211609Y0227765D01*
X0207434Y0231940D01*
G37*
G36*
X0202144Y0226651D02*
X0204927Y0229434D01*
X0209102Y0225259D01*
X0206319Y0222476D01*
X0202144Y0226651D01*
G37*
G36*
X0403619Y0234723D02*
X0406402Y0231940D01*
X0402227Y0227765D01*
X0399444Y0230548D01*
X0403619Y0234723D01*
G37*
G36*
X0408909Y0229434D02*
X0411692Y0226651D01*
X0407517Y0222476D01*
X0404734Y0225259D01*
X0408909Y0229434D01*
G37*
G36*
X0406402Y0381896D02*
X0403619Y0379113D01*
X0399444Y0383288D01*
X0402227Y0386071D01*
X0406402Y0381896D01*
G37*
G36*
X0411692Y0387185D02*
X0408909Y0384402D01*
X0404734Y0388577D01*
X0407517Y0391360D01*
X0411692Y0387185D01*
G37*
D26*
G36*
X0406820Y0392056D02*
X0398749Y0383985D01*
X0393042Y0389692D01*
X0401113Y0397763D01*
X0406820Y0392056D01*
G37*
G36*
X0398749Y0229851D02*
X0406820Y0221780D01*
X0401113Y0216073D01*
X0393042Y0224144D01*
X0398749Y0229851D01*
G37*
G36*
X0207016Y0221780D02*
X0215087Y0229851D01*
X0220794Y0224144D01*
X0212723Y0216073D01*
X0207016Y0221780D01*
G37*
G36*
X0215087Y0383985D02*
X0207016Y0392056D01*
X0212723Y0397763D01*
X0220794Y0389692D01*
X0215087Y0383985D01*
G37*
D27*
X0347898Y0332509D03*
X0347898Y0330540D03*
X0347898Y0328572D03*
X0347898Y0326603D03*
X0347898Y0324635D03*
X0347898Y0322666D03*
X0347898Y0320698D03*
X0347898Y0318729D03*
X0347898Y0316761D03*
X0347898Y0314792D03*
X0347898Y0312824D03*
X0347898Y0310855D03*
X0347898Y0308887D03*
X0347898Y0306918D03*
X0347898Y0304950D03*
X0347898Y0302981D03*
X0386331Y0302981D03*
X0386331Y0304950D03*
X0386331Y0306918D03*
X0386331Y0308887D03*
X0386331Y0310855D03*
X0386331Y0312824D03*
X0386331Y0314792D03*
X0386331Y0316761D03*
X0386331Y0318729D03*
X0386331Y0320698D03*
X0386331Y0322666D03*
X0386331Y0324635D03*
X0386331Y0326603D03*
X0386331Y0328572D03*
X0386331Y0330540D03*
X0386331Y0332509D03*
D28*
X0381879Y0336961D03*
X0379910Y0336961D03*
X0377942Y0336961D03*
X0375973Y0336961D03*
X0374005Y0336961D03*
X0372036Y0336961D03*
X0370068Y0336961D03*
X0368099Y0336961D03*
X0366131Y0336961D03*
X0364162Y0336961D03*
X0362194Y0336961D03*
X0360225Y0336961D03*
X0358257Y0336961D03*
X0356288Y0336961D03*
X0354320Y0336961D03*
X0352351Y0336961D03*
X0352351Y0298528D03*
X0354320Y0298528D03*
X0356288Y0298528D03*
X0358257Y0298528D03*
X0360225Y0298528D03*
X0362194Y0298528D03*
X0364162Y0298528D03*
X0366131Y0298528D03*
X0368099Y0298528D03*
X0370068Y0298528D03*
X0372036Y0298528D03*
X0374005Y0298528D03*
X0375973Y0298528D03*
X0377942Y0298528D03*
X0379910Y0298528D03*
X0381879Y0298528D03*
D29*
X0450855Y0278729D03*
D30*
X0450855Y0268729D03*
X0440855Y0268729D03*
X0430855Y0268729D03*
X0430855Y0278729D03*
X0440855Y0278729D03*
D31*
X0451296Y0320934D03*
X0425296Y0320934D03*
D32*
X0411249Y0320894D03*
X0408690Y0320894D03*
X0406131Y0320894D03*
X0406131Y0314595D03*
X0408690Y0314595D03*
X0411249Y0314595D03*
D33*
X0271903Y0298390D02*
X0264531Y0298390D01*
X0264531Y0305998D01*
X0271903Y0305998D01*
X0271903Y0298390D01*
X0271903Y0300348D02*
X0264531Y0300348D01*
X0264531Y0302306D02*
X0271903Y0302306D01*
X0271903Y0304264D02*
X0264531Y0304264D01*
X0247336Y0305998D02*
X0239964Y0305998D01*
X0247336Y0305998D02*
X0247336Y0298390D01*
X0239964Y0298390D01*
X0239964Y0305998D01*
X0239964Y0300348D02*
X0247336Y0300348D01*
X0247336Y0302306D02*
X0239964Y0302306D01*
X0239964Y0304264D02*
X0247336Y0304264D01*
D34*
X0358887Y0282548D03*
X0358887Y0273493D03*
X0373454Y0273493D03*
X0373454Y0282548D03*
D35*
X0162942Y0286288D03*
X0162942Y0276288D03*
X0162942Y0266288D03*
X0162942Y0256288D03*
X0162942Y0246288D03*
X0162942Y0296288D03*
X0162942Y0316918D03*
X0162942Y0326918D03*
X0162942Y0336918D03*
X0162942Y0346918D03*
X0162942Y0356918D03*
X0162942Y0366918D03*
D36*
G36*
X0182088Y0182087D02*
X0187655Y0187654D01*
X0193222Y0182087D01*
X0187655Y0176520D01*
X0182088Y0182087D01*
G37*
G36*
X0173736Y0190439D02*
X0179303Y0196006D01*
X0184870Y0190439D01*
X0179303Y0184872D01*
X0173736Y0190439D01*
G37*
G36*
X0179303Y0417831D02*
X0173736Y0423398D01*
X0179303Y0428965D01*
X0184870Y0423398D01*
X0179303Y0417831D01*
G37*
G36*
X0187655Y0426182D02*
X0182088Y0431749D01*
X0187655Y0437316D01*
X0193222Y0431749D01*
X0187655Y0426182D01*
G37*
G36*
X0431748Y0431749D02*
X0426181Y0426182D01*
X0420614Y0431749D01*
X0426181Y0437316D01*
X0431748Y0431749D01*
G37*
G36*
X0440100Y0423398D02*
X0434533Y0417831D01*
X0428966Y0423398D01*
X0434533Y0428965D01*
X0440100Y0423398D01*
G37*
G36*
X0434533Y0196006D02*
X0440100Y0190439D01*
X0434533Y0184872D01*
X0428966Y0190439D01*
X0434533Y0196006D01*
G37*
G36*
X0426181Y0187654D02*
X0431748Y0182087D01*
X0426181Y0176520D01*
X0420614Y0182087D01*
X0426181Y0187654D01*
G37*
D37*
X0276879Y0323296D03*
X0276879Y0341013D03*
X0241052Y0341013D03*
X0241052Y0323296D03*
D38*
X0306918Y0262824D03*
X0314792Y0262824D03*
D39*
X0320698Y0262824D03*
X0318729Y0281328D03*
X0295107Y0289202D03*
X0277391Y0302981D03*
X0304950Y0324635D03*
X0322666Y0308887D03*
X0340383Y0310855D03*
X0340383Y0330540D03*
X0356131Y0330540D03*
X0370501Y0345698D03*
X0379753Y0346288D03*
X0401406Y0342351D03*
X0401406Y0338414D03*
X0401406Y0334477D03*
X0401406Y0330540D03*
X0401406Y0326603D03*
X0401406Y0322666D03*
X0401406Y0312824D03*
X0401406Y0308887D03*
X0405343Y0308887D03*
X0409280Y0308887D03*
X0413217Y0308887D03*
X0417154Y0308887D03*
X0417154Y0312824D03*
X0421091Y0312824D03*
X0425028Y0312824D03*
X0425028Y0308887D03*
X0421091Y0308887D03*
X0425028Y0330540D03*
X0425028Y0334477D03*
X0425028Y0338414D03*
X0425028Y0342351D03*
X0421091Y0342351D03*
X0417154Y0342351D03*
X0413217Y0342351D03*
X0409280Y0342351D03*
X0405343Y0342351D03*
X0421091Y0350225D03*
X0421091Y0377784D03*
X0417154Y0377784D03*
X0393532Y0373847D03*
X0389595Y0373847D03*
X0373847Y0373847D03*
X0369910Y0373847D03*
X0379753Y0316761D03*
X0369910Y0308887D03*
X0371879Y0289202D03*
X0362036Y0289202D03*
X0381721Y0269517D03*
X0373847Y0239989D03*
X0369910Y0239989D03*
X0389595Y0239989D03*
X0393532Y0239989D03*
X0401406Y0239989D03*
X0405343Y0239989D03*
X0425028Y0239989D03*
X0415186Y0267548D03*
X0346288Y0265580D03*
X0275422Y0273454D03*
X0255737Y0263611D03*
X0243926Y0239989D03*
X0239989Y0239989D03*
X0228178Y0239989D03*
X0224241Y0239989D03*
X0232115Y0267548D03*
X0216367Y0275422D03*
X0208493Y0275422D03*
X0234083Y0301013D03*
X0245894Y0283296D03*
X0196682Y0236052D03*
X0192745Y0236052D03*
X0247863Y0340383D03*
X0243926Y0373847D03*
X0239989Y0373847D03*
X0228178Y0373847D03*
X0224241Y0373847D03*
X0216367Y0373847D03*
X0212430Y0373847D03*
X0180540Y0360461D03*
X0285265Y0340383D03*
D40*
X0399438Y0340487D02*
X0426997Y0340487D01*
X0426997Y0342085D02*
X0399438Y0342085D01*
X0399438Y0343684D02*
X0426997Y0343684D01*
X0426997Y0344320D02*
X0426997Y0327334D01*
X0422716Y0327334D01*
X0422531Y0327148D01*
X0422531Y0330331D01*
X0421297Y0331564D01*
X0421469Y0331635D01*
X0421924Y0331939D01*
X0422311Y0332326D01*
X0422615Y0332781D01*
X0422824Y0333287D01*
X0422931Y0333823D01*
X0422931Y0334982D01*
X0418598Y0334982D01*
X0418598Y0335508D01*
X0418072Y0335508D01*
X0418072Y0334982D01*
X0413740Y0334982D01*
X0413740Y0333823D01*
X0413847Y0333287D01*
X0414056Y0332781D01*
X0414360Y0332326D01*
X0414747Y0331939D01*
X0415202Y0331635D01*
X0415374Y0331564D01*
X0414140Y0330331D01*
X0414140Y0326065D01*
X0415533Y0324672D01*
X0416923Y0324672D01*
X0416923Y0324066D01*
X0410680Y0324066D01*
X0410680Y0324672D01*
X0411492Y0324672D01*
X0412885Y0326065D01*
X0412885Y0330331D01*
X0411652Y0331564D01*
X0411823Y0331635D01*
X0412278Y0331939D01*
X0412665Y0332326D01*
X0412969Y0332781D01*
X0413178Y0333287D01*
X0413285Y0333823D01*
X0413285Y0334982D01*
X0408953Y0334982D01*
X0408953Y0335508D01*
X0413285Y0335508D01*
X0413285Y0336667D01*
X0413178Y0337203D01*
X0412969Y0337709D01*
X0412665Y0338164D01*
X0412278Y0338551D01*
X0411823Y0338855D01*
X0411317Y0339064D01*
X0410781Y0339171D01*
X0408953Y0339171D01*
X0408953Y0335508D01*
X0408427Y0335508D01*
X0408427Y0339171D01*
X0406599Y0339171D01*
X0406062Y0339064D01*
X0405557Y0338855D01*
X0405102Y0338551D01*
X0404715Y0338164D01*
X0404411Y0337709D01*
X0404201Y0337203D01*
X0404094Y0336667D01*
X0404094Y0335508D01*
X0408427Y0335508D01*
X0408427Y0334982D01*
X0404094Y0334982D01*
X0404094Y0333823D01*
X0404201Y0333287D01*
X0404411Y0332781D01*
X0404715Y0332326D01*
X0405102Y0331939D01*
X0405557Y0331635D01*
X0405728Y0331564D01*
X0404494Y0330331D01*
X0404494Y0326065D01*
X0405887Y0324672D01*
X0406699Y0324672D01*
X0406699Y0323869D01*
X0404862Y0323869D01*
X0404042Y0323049D01*
X0404042Y0321680D01*
X0402994Y0320720D01*
X0399438Y0320720D01*
X0399438Y0344320D01*
X0426997Y0344320D01*
X0426997Y0338888D02*
X0421387Y0338888D01*
X0421469Y0338855D02*
X0420963Y0339064D01*
X0420426Y0339171D01*
X0418598Y0339171D01*
X0418598Y0335508D01*
X0422931Y0335508D01*
X0422931Y0336667D01*
X0422824Y0337203D01*
X0422615Y0337709D01*
X0422311Y0338164D01*
X0421924Y0338551D01*
X0421469Y0338855D01*
X0422788Y0337290D02*
X0426997Y0337290D01*
X0426997Y0335691D02*
X0422931Y0335691D01*
X0422931Y0334093D02*
X0426997Y0334093D01*
X0426997Y0332494D02*
X0422423Y0332494D01*
X0421966Y0330896D02*
X0426997Y0330896D01*
X0426997Y0329297D02*
X0422531Y0329297D01*
X0422531Y0327699D02*
X0426997Y0327699D01*
X0425296Y0320934D02*
X0425296Y0320894D01*
X0419123Y0320894D01*
X0419123Y0328001D01*
X0418139Y0328001D01*
X0416923Y0324502D02*
X0410680Y0324502D01*
X0412885Y0326100D02*
X0414140Y0326100D01*
X0414140Y0327699D02*
X0412885Y0327699D01*
X0412885Y0329297D02*
X0414140Y0329297D01*
X0414705Y0330896D02*
X0412320Y0330896D01*
X0412777Y0332494D02*
X0414248Y0332494D01*
X0413740Y0334093D02*
X0413285Y0334093D01*
X0413740Y0335508D02*
X0418072Y0335508D01*
X0418072Y0339171D01*
X0416245Y0339171D01*
X0415708Y0339064D01*
X0415202Y0338855D01*
X0414747Y0338551D01*
X0414360Y0338164D01*
X0414056Y0337709D01*
X0413847Y0337203D01*
X0413740Y0336667D01*
X0413740Y0335508D01*
X0413740Y0335691D02*
X0413285Y0335691D01*
X0413142Y0337290D02*
X0413883Y0337290D01*
X0415283Y0338888D02*
X0411742Y0338888D01*
X0408953Y0338888D02*
X0408427Y0338888D01*
X0408427Y0337290D02*
X0408953Y0337290D01*
X0408953Y0335691D02*
X0408427Y0335691D01*
X0405638Y0338888D02*
X0399438Y0338888D01*
X0399438Y0337290D02*
X0404237Y0337290D01*
X0404094Y0335691D02*
X0399438Y0335691D01*
X0399438Y0334093D02*
X0404094Y0334093D01*
X0404602Y0332494D02*
X0399438Y0332494D01*
X0399438Y0330896D02*
X0405060Y0330896D01*
X0404494Y0329297D02*
X0399438Y0329297D01*
X0399438Y0327699D02*
X0404494Y0327699D01*
X0404494Y0326100D02*
X0399438Y0326100D01*
X0399438Y0324502D02*
X0406699Y0324502D01*
X0404042Y0322903D02*
X0399438Y0322903D01*
X0399438Y0321305D02*
X0403632Y0321305D01*
X0403282Y0314770D02*
X0399438Y0314770D01*
X0399438Y0306918D01*
X0426997Y0306918D01*
X0399438Y0306918D01*
X0399438Y0308517D02*
X0426997Y0308517D01*
X0426997Y0310115D02*
X0399438Y0310115D01*
X0399438Y0311714D02*
X0404769Y0311714D01*
X0404862Y0311620D02*
X0406855Y0311620D01*
X0406896Y0311580D01*
X0407306Y0311343D01*
X0407764Y0311220D01*
X0408690Y0311220D01*
X0409616Y0311220D01*
X0410074Y0311343D01*
X0410484Y0311580D01*
X0410524Y0311620D01*
X0412518Y0311620D01*
X0413338Y0312441D01*
X0413338Y0316750D01*
X0412518Y0317570D01*
X0410524Y0317570D01*
X0410484Y0317610D01*
X0410289Y0317723D01*
X0421896Y0317723D01*
X0421896Y0315354D01*
X0422716Y0314534D01*
X0426997Y0314534D01*
X0426997Y0306918D01*
X0426997Y0311714D02*
X0412611Y0311714D01*
X0413338Y0313312D02*
X0426997Y0313312D01*
X0422339Y0314911D02*
X0413338Y0314911D01*
X0413338Y0316509D02*
X0421896Y0316509D01*
X0419123Y0320894D02*
X0411249Y0320894D01*
X0408690Y0314595D02*
X0408690Y0311220D01*
X0408690Y0314595D01*
X0408690Y0314595D01*
X0408690Y0313312D02*
X0408690Y0313312D01*
X0408690Y0311714D02*
X0408690Y0311714D01*
X0404862Y0311620D02*
X0404042Y0312441D01*
X0404042Y0313934D01*
X0403282Y0314770D01*
X0404042Y0313312D02*
X0399438Y0313312D01*
X0418072Y0335691D02*
X0418598Y0335691D01*
X0418598Y0337290D02*
X0418072Y0337290D01*
X0418072Y0338888D02*
X0418598Y0338888D01*
D41*
X0418335Y0328198D02*
X0418139Y0328001D01*
X0408690Y0328198D02*
X0408690Y0320894D01*
X0406131Y0320894D02*
X0403769Y0318729D01*
X0386331Y0318729D01*
X0386331Y0316761D02*
X0404162Y0316761D01*
X0406131Y0314595D01*
X0401406Y0322666D02*
X0401406Y0342351D01*
X0419930Y0358690D02*
X0419162Y0359654D01*
X0419694Y0367154D02*
X0419674Y0367174D01*
X0402923Y0382389D02*
X0402923Y0382592D01*
X0374024Y0351603D02*
X0374024Y0342351D01*
X0372056Y0340383D01*
X0372056Y0338950D01*
X0372036Y0336961D01*
X0370068Y0336961D02*
X0370068Y0344162D01*
X0370501Y0345698D01*
X0374024Y0342351D02*
X0374005Y0340402D01*
X0374005Y0336961D01*
X0375973Y0336961D02*
X0375973Y0342509D01*
X0379753Y0346288D01*
X0381721Y0322666D02*
X0379753Y0320698D01*
X0386331Y0320698D01*
X0386331Y0322666D02*
X0381721Y0322666D01*
X0379753Y0320698D02*
X0379753Y0316761D01*
X0381721Y0314792D01*
X0386331Y0314792D01*
X0375816Y0304950D02*
X0375816Y0298686D01*
X0375973Y0298528D01*
X0374005Y0298528D02*
X0374005Y0294359D01*
X0377587Y0290776D01*
X0383099Y0290776D01*
X0384083Y0289792D01*
X0384083Y0285442D01*
X0386052Y0283473D01*
X0386052Y0276426D02*
X0381721Y0272095D01*
X0381721Y0269517D01*
X0377587Y0265383D01*
X0375599Y0265383D01*
X0368552Y0265383D02*
X0368099Y0266898D01*
X0368099Y0281328D01*
X0369320Y0282548D01*
X0373454Y0282548D01*
X0368099Y0281328D02*
X0368099Y0284477D01*
X0368139Y0284517D01*
X0368099Y0284477D02*
X0368099Y0298528D01*
X0366131Y0298528D02*
X0366131Y0273454D01*
X0366091Y0273493D01*
X0358887Y0273493D01*
X0366131Y0273454D02*
X0366131Y0271662D01*
X0359851Y0265383D01*
X0352804Y0265383D02*
X0346485Y0265383D01*
X0346288Y0265580D01*
X0336052Y0290363D02*
X0326603Y0290363D01*
X0325028Y0288788D01*
X0311839Y0288985D01*
X0309674Y0288985D01*
X0309871Y0289182D01*
X0309871Y0297863D01*
X0311839Y0297863D02*
X0311839Y0288985D01*
X0309674Y0288985D02*
X0307706Y0288985D01*
X0307902Y0289182D01*
X0307902Y0297863D01*
X0305934Y0297863D02*
X0305934Y0288985D01*
X0307706Y0288985D01*
X0305934Y0288985D02*
X0301603Y0288985D01*
X0295324Y0288985D01*
X0295107Y0289202D01*
X0301603Y0281938D02*
X0311839Y0281938D01*
X0318119Y0281938D01*
X0318729Y0281328D01*
X0325619Y0289379D02*
X0326603Y0290363D01*
X0326209Y0289969D01*
X0326603Y0297883D02*
X0322489Y0301997D01*
X0315973Y0301997D01*
X0315973Y0303965D02*
X0329969Y0303965D01*
X0336052Y0297883D01*
X0340383Y0310855D02*
X0347898Y0310855D01*
X0347898Y0308887D02*
X0369910Y0308887D01*
X0364162Y0309044D01*
X0364162Y0298528D01*
X0362194Y0298528D02*
X0362194Y0289359D01*
X0362036Y0289202D01*
X0371879Y0289202D02*
X0371879Y0299044D01*
X0372036Y0298887D01*
X0372036Y0298528D01*
X0370068Y0298528D02*
X0370068Y0304792D01*
X0369910Y0308887D01*
X0375816Y0304950D01*
X0354162Y0328572D02*
X0356131Y0330540D01*
X0354162Y0332509D01*
X0347898Y0332509D01*
X0347898Y0330540D02*
X0340383Y0330540D01*
X0347898Y0328572D02*
X0354162Y0328572D01*
X0322666Y0308887D02*
X0321682Y0309871D01*
X0315973Y0309871D01*
X0315973Y0307902D02*
X0321682Y0307902D01*
X0322666Y0308887D01*
X0309871Y0315973D02*
X0309871Y0319713D01*
X0304950Y0324635D01*
X0307902Y0321682D01*
X0307902Y0315973D01*
X0305934Y0315973D02*
X0305934Y0323650D01*
X0304950Y0324635D01*
X0303965Y0323650D01*
X0303965Y0315973D01*
X0301997Y0315973D02*
X0301997Y0321682D01*
X0304950Y0324635D01*
X0303965Y0325619D01*
X0299221Y0325619D01*
X0292174Y0325619D02*
X0292154Y0324064D01*
X0292154Y0311839D01*
X0297863Y0311839D01*
X0297863Y0309871D02*
X0297843Y0309851D01*
X0287233Y0309851D01*
X0292548Y0307115D02*
X0292548Y0303572D01*
X0291780Y0302804D01*
X0287233Y0302804D01*
X0292548Y0307115D02*
X0293335Y0307902D01*
X0297863Y0307902D01*
X0285265Y0340383D02*
X0284635Y0341013D01*
X0276879Y0341013D01*
X0247863Y0340383D02*
X0247233Y0341013D01*
X0241052Y0341013D01*
X0227351Y0298257D02*
X0220265Y0298257D01*
X0213178Y0298257D01*
X0239615Y0267942D02*
X0238020Y0266347D01*
X0238020Y0257292D01*
X0238020Y0250245D02*
X0251800Y0250245D01*
X0252725Y0250245D01*
X0253611Y0249359D01*
X0251800Y0255737D02*
X0251800Y0256131D01*
X0251800Y0255737D02*
X0251643Y0255737D01*
X0263611Y0249359D02*
X0296859Y0249359D01*
X0296918Y0249418D01*
X0210913Y0231447D02*
X0210913Y0231244D01*
X0194162Y0246662D02*
X0194143Y0246682D01*
X0194871Y0254182D02*
X0193906Y0255146D01*
X0186859Y0255146D02*
X0186623Y0254910D01*
X0186859Y0358690D02*
X0186623Y0358926D01*
X0193906Y0358690D02*
X0194871Y0359654D01*
X0194143Y0367154D02*
X0194162Y0367174D01*
X0203572Y0385830D02*
X0205623Y0387881D01*
X0408213Y0225955D02*
X0410265Y0228007D01*
X0419674Y0246662D02*
X0419694Y0246682D01*
X0427213Y0246682D02*
X0427213Y0247036D01*
X0419930Y0255146D02*
X0418965Y0254182D01*
D42*
X0410265Y0254182D01*
X0410265Y0246662D02*
X0419674Y0246662D01*
X0427213Y0246682D02*
X0427213Y0242174D01*
X0425028Y0239989D01*
X0427213Y0247036D02*
X0426977Y0255146D01*
X0410265Y0246662D02*
X0410265Y0228007D01*
X0320698Y0262824D02*
X0314792Y0262824D01*
X0306918Y0262824D02*
X0306918Y0249418D01*
X0275422Y0273454D02*
X0275206Y0273670D01*
X0275206Y0281328D01*
X0268158Y0281328D02*
X0261209Y0281328D01*
X0253729Y0281328D02*
X0250186Y0277784D01*
X0246465Y0277784D01*
X0245894Y0278355D01*
X0245894Y0283296D01*
X0239418Y0277784D02*
X0239418Y0268139D01*
X0239615Y0267942D01*
X0239221Y0267548D01*
X0232115Y0267548D01*
X0216367Y0275422D02*
X0215363Y0274418D01*
X0215363Y0267548D01*
X0208493Y0267725D02*
X0208493Y0275422D01*
X0208316Y0275599D01*
X0208316Y0283493D01*
X0215363Y0283493D02*
X0215363Y0276426D01*
X0216367Y0275422D01*
X0208493Y0267725D02*
X0208316Y0267548D01*
X0203572Y0254182D02*
X0194871Y0254182D01*
X0194162Y0246662D02*
X0203572Y0246662D01*
X0203572Y0238585D01*
X0210913Y0231244D01*
X0192745Y0236052D02*
X0186623Y0242174D01*
X0186623Y0246682D01*
X0186623Y0254910D01*
X0227351Y0298257D02*
X0231328Y0298257D01*
X0234083Y0301013D01*
X0235265Y0302194D01*
X0243650Y0302194D01*
X0227351Y0315580D02*
X0227351Y0322410D01*
X0228965Y0324024D01*
X0220304Y0324024D02*
X0220265Y0323985D01*
X0220265Y0315580D01*
X0213178Y0315580D02*
X0213178Y0322883D01*
X0212036Y0324024D01*
X0203572Y0359654D02*
X0194871Y0359654D01*
X0194162Y0367174D02*
X0203572Y0367174D01*
X0203572Y0385830D01*
X0186623Y0367154D02*
X0186623Y0360855D01*
X0186623Y0360461D01*
X0180540Y0360461D01*
X0186623Y0360461D02*
X0186623Y0358926D01*
X0268217Y0302194D02*
X0276603Y0302194D01*
X0277391Y0302981D01*
X0261209Y0271091D02*
X0261209Y0258060D01*
X0258887Y0255737D01*
X0254162Y0255737D01*
X0254162Y0250245D01*
X0251800Y0250245D01*
X0251643Y0255737D02*
X0254162Y0255737D01*
X0251643Y0255737D02*
X0251643Y0267942D01*
X0246662Y0267942D01*
X0251643Y0267942D02*
X0253611Y0270973D01*
X0253729Y0271091D01*
X0257469Y0271091D02*
X0257469Y0265343D01*
X0255737Y0263611D01*
X0402923Y0382592D02*
X0410265Y0375251D01*
X0410265Y0367174D01*
X0419674Y0367174D01*
X0419162Y0359654D02*
X0410265Y0359654D01*
X0426977Y0358690D02*
X0427213Y0358926D01*
X0427213Y0367154D01*
X0427213Y0371662D01*
X0421091Y0377784D01*
D43*
X0430442Y0360068D02*
X0430442Y0352194D01*
X0428473Y0350225D01*
X0421091Y0350225D01*
X0430442Y0360068D02*
X0445206Y0374831D01*
X0445206Y0377784D01*
X0445520Y0379950D01*
X0453749Y0379950D02*
X0454064Y0377784D01*
X0454064Y0370894D01*
X0453788Y0370501D01*
X0446269Y0370501D02*
X0446190Y0370402D01*
X0442745Y0366957D01*
X0410265Y0360068D02*
X0410265Y0359654D01*
X0410265Y0360068D02*
X0370894Y0360068D01*
X0355146Y0375816D01*
X0336446Y0375816D01*
X0331524Y0370894D01*
X0331524Y0370816D01*
X0340383Y0365973D02*
X0286249Y0365973D01*
X0282312Y0369910D01*
X0281524Y0370816D01*
X0296091Y0375816D02*
X0301013Y0370894D01*
X0301524Y0370816D01*
X0296091Y0375816D02*
X0259674Y0375816D01*
X0243926Y0360068D01*
X0203572Y0360068D01*
X0203572Y0359654D01*
X0208985Y0335954D02*
X0167646Y0294615D01*
X0167646Y0291170D01*
X0163217Y0286741D01*
X0162942Y0286288D01*
X0163217Y0276406D02*
X0162942Y0276288D01*
X0163217Y0276406D02*
X0205540Y0318729D01*
X0217843Y0328572D02*
X0222765Y0328572D01*
X0225225Y0331032D01*
X0225225Y0333493D01*
X0226209Y0334477D01*
X0300028Y0334477D01*
X0301013Y0333493D01*
X0301013Y0329556D02*
X0282804Y0329556D01*
X0276898Y0323650D01*
X0276879Y0323296D01*
X0276406Y0323650D01*
X0241465Y0323650D01*
X0241052Y0323296D01*
X0235560Y0323158D02*
X0235560Y0320206D01*
X0247863Y0307902D01*
X0252292Y0307902D01*
X0274438Y0285757D01*
X0336938Y0285757D01*
X0347765Y0296583D01*
X0347765Y0302981D01*
X0347898Y0302981D01*
X0347898Y0304950D02*
X0335461Y0304950D01*
X0334477Y0303965D01*
X0331032Y0306918D02*
X0347898Y0306918D01*
X0348749Y0312331D02*
X0348257Y0312824D01*
X0347898Y0312824D01*
X0348749Y0312331D02*
X0356623Y0312331D01*
X0359576Y0314792D02*
X0347898Y0314792D01*
X0347898Y0316761D02*
X0338414Y0316761D01*
X0340383Y0318729D02*
X0339398Y0319713D01*
X0319713Y0319713D01*
X0316761Y0311839D02*
X0315973Y0311839D01*
X0316761Y0311839D02*
X0316761Y0338414D01*
X0318729Y0340383D01*
X0314300Y0343335D02*
X0313985Y0343139D01*
X0313808Y0342843D01*
X0311839Y0340875D01*
X0311839Y0340383D01*
X0301013Y0329556D01*
X0305442Y0335954D02*
X0208985Y0335954D01*
X0209477Y0334477D02*
X0208001Y0333001D01*
X0208001Y0293139D01*
X0213906Y0287233D01*
X0268040Y0287233D01*
X0271977Y0283296D01*
X0271977Y0271485D01*
X0272961Y0270501D01*
X0337430Y0270501D01*
X0358099Y0291170D01*
X0358099Y0298060D01*
X0358257Y0298528D01*
X0360068Y0298552D02*
X0360225Y0298528D01*
X0360068Y0298552D02*
X0360068Y0301997D01*
X0359083Y0302981D01*
X0358591Y0302981D01*
X0357607Y0303965D01*
X0356131Y0306426D02*
X0360560Y0306426D01*
X0361052Y0305934D01*
X0356131Y0306426D02*
X0352686Y0302981D01*
X0352686Y0298552D01*
X0352351Y0298528D01*
X0354162Y0298060D02*
X0354320Y0298528D01*
X0354162Y0298060D02*
X0354162Y0294123D01*
X0353178Y0293139D01*
X0354162Y0290186D02*
X0356131Y0292154D01*
X0356131Y0298060D01*
X0356288Y0298528D01*
X0354162Y0290186D02*
X0352194Y0290186D01*
X0349241Y0293139D01*
X0359576Y0314792D02*
X0371387Y0326603D01*
X0373355Y0326603D01*
X0373847Y0331524D02*
X0375816Y0331524D01*
X0377784Y0333493D01*
X0377784Y0336446D01*
X0377942Y0336961D01*
X0368099Y0336961D02*
X0367942Y0336446D01*
X0367942Y0333493D01*
X0364989Y0330540D01*
X0356131Y0330540D01*
X0359576Y0324635D02*
X0347898Y0324635D01*
X0347898Y0322666D02*
X0357607Y0322666D01*
X0358591Y0321682D01*
X0359576Y0324635D02*
X0362528Y0321682D01*
X0353178Y0320206D02*
X0352686Y0320698D01*
X0347898Y0320698D01*
X0347898Y0318729D02*
X0340383Y0318729D01*
X0334477Y0314792D02*
X0325619Y0305934D01*
X0315973Y0305934D01*
X0340383Y0330540D02*
X0340383Y0339398D01*
X0337430Y0342351D01*
X0331524Y0342351D01*
X0331347Y0343139D01*
X0329064Y0337922D02*
X0324143Y0342843D01*
X0323828Y0343139D01*
X0323650Y0343335D01*
X0314300Y0343335D01*
X0310363Y0345304D02*
X0310363Y0340875D01*
X0305442Y0335954D01*
X0306938Y0343139D02*
X0306918Y0343335D01*
X0282804Y0343335D01*
X0271485Y0354654D01*
X0175028Y0354654D01*
X0163217Y0366465D01*
X0162942Y0366918D01*
X0209477Y0334477D02*
X0214398Y0334477D01*
X0216859Y0332017D01*
X0220304Y0332017D01*
X0220304Y0331544D01*
X0217843Y0328572D02*
X0214891Y0331524D01*
X0212430Y0331524D01*
X0212036Y0331544D01*
X0228965Y0331544D02*
X0229162Y0331524D01*
X0229162Y0329556D01*
X0235560Y0323158D01*
X0289202Y0349241D02*
X0353178Y0349241D01*
X0362036Y0340383D01*
X0362036Y0337430D01*
X0362194Y0336961D01*
X0364005Y0337430D02*
X0364005Y0340383D01*
X0341367Y0363020D01*
X0299044Y0363020D01*
X0312331Y0347272D02*
X0310363Y0345304D01*
X0312331Y0347272D02*
X0353178Y0347272D01*
X0360068Y0340383D01*
X0360068Y0337430D01*
X0360225Y0336961D01*
X0364005Y0337430D02*
X0364162Y0336961D01*
X0365973Y0337430D02*
X0366131Y0336961D01*
X0365973Y0337430D02*
X0365973Y0340383D01*
X0340383Y0365973D01*
X0351524Y0370816D02*
X0352194Y0369910D01*
X0366957Y0355146D01*
X0366957Y0352194D01*
X0366977Y0351603D01*
X0366957Y0351209D01*
X0366957Y0343335D01*
X0367942Y0342351D01*
X0367942Y0337430D01*
X0368099Y0336961D01*
X0386331Y0324635D02*
X0389595Y0324635D01*
X0392056Y0322174D01*
X0337430Y0337922D02*
X0329064Y0337922D01*
X0415186Y0267548D02*
X0429674Y0267548D01*
X0430855Y0268729D01*
X0430442Y0269024D01*
X0430855Y0268729D02*
X0430934Y0268532D01*
X0430934Y0251308D01*
X0445206Y0237036D01*
X0445206Y0236052D01*
X0445520Y0234083D01*
X0453749Y0234083D02*
X0453572Y0236052D01*
X0446190Y0243434D01*
X0446072Y0243532D01*
X0450127Y0247371D02*
X0453572Y0243926D01*
X0453591Y0243532D01*
X0410265Y0254182D02*
X0410265Y0254753D01*
X0405343Y0254753D01*
X0281328Y0243926D02*
X0238020Y0243926D01*
X0228178Y0253769D01*
X0203572Y0253769D01*
X0203572Y0254182D01*
D44*
X0205540Y0318729D03*
X0281328Y0243926D03*
X0334477Y0303965D03*
X0331032Y0306918D03*
X0334477Y0314792D03*
X0338414Y0316761D03*
X0353178Y0320206D03*
X0358591Y0321682D03*
X0362528Y0321682D03*
X0356623Y0312331D03*
X0361052Y0305934D03*
X0357607Y0303965D03*
X0353178Y0293139D03*
X0349241Y0293139D03*
X0319713Y0319713D03*
X0318729Y0340383D03*
X0337430Y0337922D03*
X0301013Y0333493D03*
X0289202Y0349241D03*
X0299044Y0363020D03*
X0373847Y0331524D03*
X0373355Y0326603D03*
X0392056Y0322174D03*
X0442745Y0366957D03*
X0405343Y0254753D03*
X0450127Y0247371D03*
D45*
X0421789Y0202892D02*
X0417109Y0202892D01*
X0409410Y0210591D01*
X0399931Y0220070D01*
X0399931Y0222962D01*
X0402923Y0231244D02*
X0402923Y0238472D01*
X0401406Y0239989D01*
X0393532Y0239989D02*
X0383511Y0229968D01*
X0383511Y0226782D01*
X0404427Y0205866D01*
X0404427Y0205608D01*
X0412519Y0197515D01*
X0412519Y0193622D01*
X0424054Y0182087D01*
X0426181Y0182087D01*
X0434243Y0190439D02*
X0421789Y0202892D01*
X0434243Y0190439D02*
X0434533Y0190439D01*
X0375995Y0234298D02*
X0375601Y0234298D01*
X0369910Y0239989D01*
X0243926Y0239989D02*
X0238235Y0234298D01*
X0237842Y0234298D01*
X0230325Y0226782D02*
X0224241Y0232866D01*
X0224241Y0239989D01*
X0230325Y0226782D02*
X0230325Y0226523D01*
X0209410Y0205608D01*
X0201317Y0197515D01*
X0201317Y0193622D01*
X0189783Y0182087D01*
X0187655Y0182087D01*
X0179594Y0190439D02*
X0192047Y0202892D01*
X0196728Y0202892D01*
X0204427Y0210591D01*
X0213905Y0220070D01*
X0213905Y0222962D01*
X0205623Y0225955D02*
X0202842Y0225955D01*
X0192745Y0236052D01*
X0179594Y0190439D02*
X0179303Y0190439D01*
X0216367Y0373847D02*
X0210913Y0379301D01*
X0210913Y0382592D01*
X0213905Y0390874D02*
X0213905Y0393766D01*
X0204427Y0403245D01*
X0196728Y0410944D01*
X0192047Y0410944D01*
X0179594Y0423398D01*
X0179303Y0423398D01*
X0187655Y0431749D02*
X0189783Y0431749D01*
X0201317Y0420215D01*
X0201317Y0416321D01*
X0209410Y0408229D01*
X0209410Y0407970D01*
X0230325Y0387054D01*
X0228178Y0384907D01*
X0228178Y0373847D01*
X0237842Y0379538D02*
X0238235Y0379538D01*
X0243926Y0373847D01*
X0369910Y0373847D02*
X0375601Y0379538D01*
X0375995Y0379538D01*
X0383511Y0383869D02*
X0393532Y0373847D01*
X0383511Y0383869D02*
X0383511Y0387054D01*
X0404427Y0407970D01*
X0404427Y0408229D01*
X0412519Y0416321D01*
X0412519Y0420215D01*
X0423266Y0430962D01*
X0426181Y0431749D01*
X0434533Y0423398D02*
X0432368Y0421523D01*
X0421789Y0410944D01*
X0417109Y0410944D01*
X0409410Y0403245D01*
X0399734Y0393570D01*
X0399931Y0390874D01*
X0408213Y0387881D02*
X0410994Y0387881D01*
X0421091Y0377784D01*
M02*
