G75*
%MOIN*%
%OFA0B0*%
%FSLAX25Y25*%
%IPPOS*%
%LPD*%
%AMOC8*
5,1,8,0,0,1.08239X$1,22.5*
%
%ADD10C,0.00000*%
%ADD11C,0.00500*%
%ADD12C,0.00400*%
D10*
X0088414Y0096288D02*
X0095107Y0102981D01*
X0102981Y0095107D02*
X0096288Y0088414D01*
X0096289Y0088415D02*
X0096819Y0088086D01*
X0097358Y0087770D01*
X0097905Y0087467D01*
X0098458Y0087178D01*
X0099018Y0086902D01*
X0099585Y0086640D01*
X0100158Y0086392D01*
X0100737Y0086158D01*
X0101322Y0085938D01*
X0101912Y0085733D01*
X0102506Y0085541D01*
X0103105Y0085365D01*
X0103708Y0085202D01*
X0104315Y0085055D01*
X0104925Y0084922D01*
X0105539Y0084805D01*
X0106155Y0084702D01*
X0106773Y0084614D01*
X0107393Y0084542D01*
X0108015Y0084484D01*
X0108638Y0084442D01*
X0109262Y0084415D01*
X0109887Y0084403D01*
X0110511Y0084406D01*
X0111135Y0084424D01*
X0111759Y0084458D01*
X0112381Y0084506D01*
X0113003Y0084570D01*
X0113622Y0084649D01*
X0114240Y0084743D01*
X0114855Y0084852D01*
X0115467Y0084976D01*
X0116076Y0085115D01*
X0116681Y0085269D01*
X0117282Y0085437D01*
X0117879Y0085620D01*
X0118472Y0085817D01*
X0119060Y0086029D01*
X0119642Y0086254D01*
X0120218Y0086494D01*
X0120789Y0086748D01*
X0121353Y0087016D01*
X0121911Y0087297D01*
X0122461Y0087592D01*
X0123004Y0087901D01*
X0123540Y0088222D01*
X0124067Y0088556D01*
X0124587Y0088903D01*
X0125097Y0089263D01*
X0125599Y0089634D01*
X0126092Y0090018D01*
X0126575Y0090414D01*
X0127048Y0090822D01*
X0127511Y0091240D01*
X0127964Y0091670D01*
X0128406Y0092111D01*
X0128838Y0092563D01*
X0129258Y0093025D01*
X0129667Y0093497D01*
X0130065Y0093978D01*
X0130450Y0094470D01*
X0130824Y0094970D01*
X0131185Y0095480D01*
X0131534Y0095998D01*
X0131870Y0096524D01*
X0132193Y0097059D01*
X0132503Y0097601D01*
X0132799Y0098150D01*
X0133083Y0098707D01*
X0133352Y0099270D01*
X0133608Y0099840D01*
X0133850Y0100416D01*
X0134078Y0100997D01*
X0134291Y0101584D01*
X0134491Y0102176D01*
X0134675Y0102772D01*
X0134846Y0103373D01*
X0135001Y0103978D01*
X0135142Y0104587D01*
X0135268Y0105198D01*
X0135379Y0105813D01*
X0135475Y0106430D01*
X0135556Y0107049D01*
X0135622Y0107670D01*
X0135673Y0108293D01*
X0135708Y0108916D01*
X0135729Y0109540D01*
X0135734Y0110165D01*
X0135724Y0110789D01*
X0135699Y0111413D01*
X0135658Y0112036D01*
X0251800Y0228178D01*
X0362036Y0228178D01*
X0478178Y0112036D01*
X0491958Y0098257D02*
X0492246Y0097979D01*
X0492541Y0097708D01*
X0492842Y0097445D01*
X0493149Y0097188D01*
X0493463Y0096940D01*
X0493783Y0096698D01*
X0494108Y0096465D01*
X0494438Y0096239D01*
X0494775Y0096022D01*
X0495116Y0095813D01*
X0495462Y0095612D01*
X0495813Y0095419D01*
X0496168Y0095235D01*
X0496528Y0095059D01*
X0496892Y0094892D01*
X0497260Y0094734D01*
X0497631Y0094585D01*
X0498006Y0094445D01*
X0498384Y0094314D01*
X0498766Y0094192D01*
X0499150Y0094079D01*
X0499536Y0093976D01*
X0499926Y0093881D01*
X0500317Y0093797D01*
X0500710Y0093721D01*
X0501105Y0093656D01*
X0501501Y0093599D01*
X0501899Y0093553D01*
X0502297Y0093515D01*
X0502697Y0093488D01*
X0503097Y0093470D01*
X0503497Y0093462D01*
X0503897Y0093463D01*
X0504297Y0093474D01*
X0504697Y0093495D01*
X0505096Y0093525D01*
X0505495Y0093565D01*
X0505892Y0093614D01*
X0506288Y0093673D01*
X0506682Y0093741D01*
X0507075Y0093819D01*
X0507466Y0093907D01*
X0507854Y0094004D01*
X0508240Y0094110D01*
X0508623Y0094225D01*
X0509004Y0094349D01*
X0509381Y0094483D01*
X0509755Y0094626D01*
X0510126Y0094777D01*
X0510492Y0094938D01*
X0510855Y0095107D01*
X0517548Y0088414D01*
X0525422Y0096288D02*
X0518729Y0102981D01*
X0517548Y0088415D02*
X0517010Y0088086D01*
X0516465Y0087771D01*
X0515912Y0087469D01*
X0515351Y0087181D01*
X0514784Y0086906D01*
X0514211Y0086646D01*
X0513631Y0086400D01*
X0513045Y0086167D01*
X0512454Y0085950D01*
X0511858Y0085747D01*
X0511257Y0085558D01*
X0510651Y0085384D01*
X0510042Y0085225D01*
X0509428Y0085082D01*
X0508812Y0084953D01*
X0508192Y0084839D01*
X0507570Y0084740D01*
X0506945Y0084657D01*
X0506319Y0084589D01*
X0505691Y0084537D01*
X0505063Y0084499D01*
X0504433Y0084477D01*
X0503803Y0084471D01*
X0503173Y0084480D01*
X0502544Y0084504D01*
X0501915Y0084544D01*
X0501287Y0084599D01*
X0500661Y0084670D01*
X0500037Y0084756D01*
X0499416Y0084857D01*
X0498796Y0084973D01*
X0498180Y0085104D01*
X0497568Y0085251D01*
X0496959Y0085412D01*
X0496354Y0085588D01*
X0495753Y0085779D01*
X0495158Y0085985D01*
X0494568Y0086205D01*
X0493983Y0086439D01*
X0493404Y0086688D01*
X0492832Y0086951D01*
X0492266Y0087227D01*
X0491707Y0087518D01*
X0491155Y0087822D01*
X0490611Y0088139D01*
X0490075Y0088470D01*
X0489547Y0088814D01*
X0489027Y0089170D01*
X0488517Y0089540D01*
X0488016Y0089921D01*
X0487524Y0090315D01*
X0487042Y0090720D01*
X0486570Y0091138D01*
X0486108Y0091566D01*
X0485657Y0092006D01*
X0485217Y0092457D01*
X0484788Y0092918D01*
X0484371Y0093390D01*
X0483965Y0093872D01*
X0483571Y0094363D01*
X0483189Y0094865D01*
X0482820Y0095375D01*
X0482463Y0095894D01*
X0482119Y0096422D01*
X0481788Y0096958D01*
X0481470Y0097502D01*
X0481166Y0098053D01*
X0480875Y0098612D01*
X0480598Y0099178D01*
X0480335Y0099750D01*
X0480086Y0100329D01*
X0479851Y0100914D01*
X0479631Y0101504D01*
X0479425Y0102099D01*
X0479234Y0102699D01*
X0479057Y0103304D01*
X0478896Y0103913D01*
X0478749Y0104526D01*
X0478617Y0105142D01*
X0478501Y0105761D01*
X0478400Y0106383D01*
X0478313Y0107007D01*
X0478243Y0107633D01*
X0478187Y0108260D01*
X0478147Y0108889D01*
X0478122Y0109518D01*
X0478113Y0110148D01*
X0478119Y0110778D01*
X0478141Y0111408D01*
X0478178Y0112037D01*
X0515579Y0121878D02*
X0515857Y0121590D01*
X0516128Y0121295D01*
X0516391Y0120994D01*
X0516648Y0120687D01*
X0516896Y0120373D01*
X0517138Y0120053D01*
X0517371Y0119728D01*
X0517597Y0119398D01*
X0517814Y0119061D01*
X0518023Y0118720D01*
X0518224Y0118374D01*
X0518417Y0118023D01*
X0518601Y0117668D01*
X0518777Y0117308D01*
X0518944Y0116944D01*
X0519102Y0116576D01*
X0519251Y0116205D01*
X0519391Y0115830D01*
X0519522Y0115452D01*
X0519644Y0115070D01*
X0519757Y0114686D01*
X0519860Y0114300D01*
X0519955Y0113910D01*
X0520039Y0113519D01*
X0520115Y0113126D01*
X0520180Y0112731D01*
X0520237Y0112335D01*
X0520283Y0111937D01*
X0520321Y0111539D01*
X0520348Y0111139D01*
X0520366Y0110739D01*
X0520374Y0110339D01*
X0520373Y0109939D01*
X0520362Y0109539D01*
X0520341Y0109139D01*
X0520311Y0108740D01*
X0520271Y0108341D01*
X0520222Y0107944D01*
X0520163Y0107548D01*
X0520095Y0107154D01*
X0520017Y0106761D01*
X0519929Y0106370D01*
X0519832Y0105982D01*
X0519726Y0105596D01*
X0519611Y0105213D01*
X0519487Y0104832D01*
X0519353Y0104455D01*
X0519210Y0104081D01*
X0519059Y0103710D01*
X0518898Y0103344D01*
X0518729Y0102981D01*
X0525422Y0096289D02*
X0525751Y0096819D01*
X0526067Y0097358D01*
X0526370Y0097905D01*
X0526659Y0098458D01*
X0526935Y0099018D01*
X0527197Y0099585D01*
X0527445Y0100158D01*
X0527679Y0100737D01*
X0527899Y0101322D01*
X0528104Y0101912D01*
X0528296Y0102506D01*
X0528472Y0103105D01*
X0528635Y0103708D01*
X0528782Y0104315D01*
X0528915Y0104925D01*
X0529032Y0105539D01*
X0529135Y0106155D01*
X0529223Y0106773D01*
X0529295Y0107393D01*
X0529353Y0108015D01*
X0529395Y0108638D01*
X0529422Y0109262D01*
X0529434Y0109887D01*
X0529431Y0110511D01*
X0529413Y0111135D01*
X0529379Y0111759D01*
X0529331Y0112381D01*
X0529267Y0113003D01*
X0529188Y0113622D01*
X0529094Y0114240D01*
X0528985Y0114855D01*
X0528861Y0115467D01*
X0528722Y0116076D01*
X0528568Y0116681D01*
X0528400Y0117282D01*
X0528217Y0117879D01*
X0528020Y0118472D01*
X0527808Y0119060D01*
X0527583Y0119642D01*
X0527343Y0120218D01*
X0527089Y0120789D01*
X0526821Y0121353D01*
X0526540Y0121911D01*
X0526245Y0122461D01*
X0525936Y0123004D01*
X0525615Y0123540D01*
X0525281Y0124067D01*
X0524934Y0124587D01*
X0524574Y0125097D01*
X0524203Y0125599D01*
X0523819Y0126092D01*
X0523423Y0126575D01*
X0523015Y0127048D01*
X0522597Y0127511D01*
X0522167Y0127964D01*
X0521726Y0128406D01*
X0521274Y0128838D01*
X0520812Y0129258D01*
X0520340Y0129667D01*
X0519859Y0130065D01*
X0519367Y0130450D01*
X0518867Y0130824D01*
X0518357Y0131185D01*
X0517839Y0131534D01*
X0517313Y0131870D01*
X0516778Y0132193D01*
X0516236Y0132503D01*
X0515687Y0132799D01*
X0515130Y0133083D01*
X0514567Y0133352D01*
X0513997Y0133608D01*
X0513421Y0133850D01*
X0512840Y0134078D01*
X0512253Y0134291D01*
X0511661Y0134491D01*
X0511065Y0134675D01*
X0510464Y0134846D01*
X0509859Y0135001D01*
X0509250Y0135142D01*
X0508639Y0135268D01*
X0508024Y0135379D01*
X0507407Y0135475D01*
X0506788Y0135556D01*
X0506167Y0135622D01*
X0505544Y0135673D01*
X0504921Y0135708D01*
X0504297Y0135729D01*
X0503672Y0135734D01*
X0503048Y0135724D01*
X0502424Y0135699D01*
X0501801Y0135658D01*
X0501800Y0135658D02*
X0421091Y0216367D01*
X0421092Y0216367D02*
X0420973Y0216488D01*
X0420858Y0216612D01*
X0420746Y0216739D01*
X0420637Y0216868D01*
X0420531Y0217000D01*
X0420428Y0217135D01*
X0420329Y0217272D01*
X0420232Y0217411D01*
X0420140Y0217553D01*
X0420051Y0217697D01*
X0419965Y0217843D01*
X0419883Y0217992D01*
X0419805Y0218142D01*
X0419730Y0218294D01*
X0419659Y0218447D01*
X0419592Y0218603D01*
X0419528Y0218760D01*
X0419469Y0218918D01*
X0419413Y0219078D01*
X0419361Y0219240D01*
X0419313Y0219402D01*
X0419269Y0219566D01*
X0419230Y0219730D01*
X0419194Y0219896D01*
X0419162Y0220062D01*
X0419134Y0220229D01*
X0419110Y0220397D01*
X0419091Y0220565D01*
X0419075Y0220734D01*
X0419064Y0220903D01*
X0419056Y0221072D01*
X0419053Y0221241D01*
X0419054Y0221410D01*
X0419059Y0221580D01*
X0419068Y0221749D01*
X0419082Y0221918D01*
X0419099Y0222086D01*
X0419120Y0222254D01*
X0419146Y0222421D01*
X0419176Y0222588D01*
X0419209Y0222754D01*
X0419247Y0222919D01*
X0419289Y0223083D01*
X0419334Y0223247D01*
X0419384Y0223408D01*
X0419437Y0223569D01*
X0419495Y0223728D01*
X0419556Y0223886D01*
X0419621Y0224043D01*
X0419690Y0224197D01*
X0419763Y0224350D01*
X0419839Y0224501D01*
X0419919Y0224651D01*
X0420003Y0224798D01*
X0420090Y0224943D01*
X0420181Y0225086D01*
X0420275Y0225227D01*
X0420372Y0225365D01*
X0420473Y0225501D01*
X0420577Y0225635D01*
X0420685Y0225766D01*
X0420795Y0225894D01*
X0420909Y0226020D01*
X0421026Y0226143D01*
X0421145Y0226263D01*
X0421268Y0226380D01*
X0421393Y0226493D01*
X0421521Y0226604D01*
X0421652Y0226712D01*
X0421785Y0226817D01*
X0421921Y0226918D01*
X0422059Y0227016D01*
X0422199Y0227110D01*
X0422342Y0227201D01*
X0422487Y0227289D01*
X0422634Y0227373D01*
X0422783Y0227453D01*
X0422934Y0227530D01*
X0423087Y0227603D01*
X0423241Y0227672D01*
X0423398Y0227738D01*
X0423555Y0227800D01*
X0423715Y0227858D01*
X0423875Y0227911D01*
X0424037Y0227962D01*
X0424200Y0228008D01*
X0424364Y0228050D01*
X0424529Y0228088D01*
X0424695Y0228122D01*
X0424861Y0228152D01*
X0425029Y0228178D01*
X0425028Y0228178D02*
X0464398Y0228178D01*
X0464398Y0385658D01*
X0425028Y0385658D01*
X0424865Y0385672D01*
X0424703Y0385689D01*
X0424540Y0385711D01*
X0424379Y0385736D01*
X0424218Y0385765D01*
X0424057Y0385799D01*
X0423898Y0385836D01*
X0423739Y0385877D01*
X0423582Y0385922D01*
X0423426Y0385970D01*
X0423271Y0386023D01*
X0423117Y0386079D01*
X0422965Y0386139D01*
X0422814Y0386202D01*
X0422665Y0386269D01*
X0422517Y0386340D01*
X0422371Y0386415D01*
X0422227Y0386492D01*
X0422085Y0386574D01*
X0421945Y0386659D01*
X0421807Y0386747D01*
X0421672Y0386838D01*
X0421538Y0386933D01*
X0421407Y0387031D01*
X0421279Y0387132D01*
X0421152Y0387236D01*
X0421029Y0387344D01*
X0420908Y0387454D01*
X0420789Y0387567D01*
X0420674Y0387683D01*
X0420561Y0387802D01*
X0420452Y0387923D01*
X0420345Y0388047D01*
X0420241Y0388174D01*
X0420141Y0388303D01*
X0420043Y0388435D01*
X0419949Y0388568D01*
X0419858Y0388704D01*
X0419771Y0388843D01*
X0419686Y0388983D01*
X0419606Y0389125D01*
X0419528Y0389270D01*
X0419455Y0389416D01*
X0419384Y0389564D01*
X0419318Y0389713D01*
X0419255Y0389864D01*
X0419196Y0390017D01*
X0419140Y0390171D01*
X0419088Y0390326D01*
X0419040Y0390483D01*
X0418996Y0390640D01*
X0418956Y0390799D01*
X0418919Y0390958D01*
X0418887Y0391119D01*
X0418858Y0391280D01*
X0418834Y0391442D01*
X0418813Y0391604D01*
X0418796Y0391767D01*
X0418783Y0391930D01*
X0418774Y0392093D01*
X0418769Y0392257D01*
X0418768Y0392421D01*
X0418771Y0392584D01*
X0418778Y0392748D01*
X0418789Y0392911D01*
X0418804Y0393074D01*
X0418823Y0393237D01*
X0418846Y0393399D01*
X0418872Y0393560D01*
X0418903Y0393721D01*
X0418938Y0393881D01*
X0418976Y0394040D01*
X0419018Y0394198D01*
X0419064Y0394355D01*
X0419114Y0394511D01*
X0419168Y0394666D01*
X0419225Y0394819D01*
X0419286Y0394971D01*
X0419351Y0395121D01*
X0419420Y0395270D01*
X0419492Y0395417D01*
X0419567Y0395562D01*
X0419646Y0395705D01*
X0419729Y0395847D01*
X0419815Y0395986D01*
X0419904Y0396123D01*
X0419997Y0396258D01*
X0420092Y0396391D01*
X0420191Y0396521D01*
X0420294Y0396649D01*
X0420399Y0396774D01*
X0420507Y0396897D01*
X0420618Y0397017D01*
X0420732Y0397134D01*
X0420849Y0397249D01*
X0420969Y0397361D01*
X0421091Y0397469D01*
X0501800Y0478178D01*
X0478178Y0501800D02*
X0362036Y0385658D01*
X0251800Y0385658D01*
X0135658Y0501800D01*
X0112036Y0478178D02*
X0192745Y0397469D01*
X0192864Y0397348D01*
X0192979Y0397224D01*
X0193091Y0397097D01*
X0193200Y0396968D01*
X0193306Y0396836D01*
X0193409Y0396701D01*
X0193508Y0396564D01*
X0193605Y0396425D01*
X0193697Y0396283D01*
X0193786Y0396139D01*
X0193872Y0395993D01*
X0193954Y0395844D01*
X0194032Y0395694D01*
X0194107Y0395542D01*
X0194178Y0395389D01*
X0194245Y0395233D01*
X0194309Y0395076D01*
X0194368Y0394918D01*
X0194424Y0394758D01*
X0194476Y0394596D01*
X0194524Y0394434D01*
X0194568Y0394270D01*
X0194607Y0394106D01*
X0194643Y0393940D01*
X0194675Y0393774D01*
X0194703Y0393607D01*
X0194727Y0393439D01*
X0194746Y0393271D01*
X0194762Y0393102D01*
X0194773Y0392933D01*
X0194781Y0392764D01*
X0194784Y0392595D01*
X0194783Y0392426D01*
X0194778Y0392256D01*
X0194769Y0392087D01*
X0194755Y0391918D01*
X0194738Y0391750D01*
X0194717Y0391582D01*
X0194691Y0391415D01*
X0194661Y0391248D01*
X0194628Y0391082D01*
X0194590Y0390917D01*
X0194548Y0390753D01*
X0194503Y0390589D01*
X0194453Y0390428D01*
X0194400Y0390267D01*
X0194342Y0390108D01*
X0194281Y0389950D01*
X0194216Y0389793D01*
X0194147Y0389639D01*
X0194074Y0389486D01*
X0193998Y0389335D01*
X0193918Y0389185D01*
X0193834Y0389038D01*
X0193747Y0388893D01*
X0193656Y0388750D01*
X0193562Y0388609D01*
X0193465Y0388471D01*
X0193364Y0388335D01*
X0193260Y0388201D01*
X0193152Y0388070D01*
X0193042Y0387942D01*
X0192928Y0387816D01*
X0192811Y0387693D01*
X0192692Y0387573D01*
X0192569Y0387456D01*
X0192444Y0387343D01*
X0192316Y0387232D01*
X0192185Y0387124D01*
X0192052Y0387019D01*
X0191916Y0386918D01*
X0191778Y0386820D01*
X0191638Y0386726D01*
X0191495Y0386635D01*
X0191350Y0386547D01*
X0191203Y0386463D01*
X0191054Y0386383D01*
X0190903Y0386306D01*
X0190750Y0386233D01*
X0190596Y0386164D01*
X0190439Y0386098D01*
X0190282Y0386036D01*
X0190122Y0385978D01*
X0189962Y0385925D01*
X0189800Y0385874D01*
X0189637Y0385828D01*
X0189473Y0385786D01*
X0189308Y0385748D01*
X0189142Y0385714D01*
X0188976Y0385684D01*
X0188808Y0385658D01*
X0149438Y0385658D01*
X0149438Y0228178D01*
X0188808Y0228178D01*
X0188976Y0228152D01*
X0189142Y0228122D01*
X0189308Y0228088D01*
X0189473Y0228050D01*
X0189637Y0228008D01*
X0189800Y0227962D01*
X0189962Y0227911D01*
X0190122Y0227858D01*
X0190282Y0227800D01*
X0190439Y0227738D01*
X0190596Y0227672D01*
X0190750Y0227603D01*
X0190903Y0227530D01*
X0191054Y0227453D01*
X0191203Y0227373D01*
X0191350Y0227289D01*
X0191495Y0227201D01*
X0191638Y0227110D01*
X0191778Y0227016D01*
X0191916Y0226918D01*
X0192052Y0226817D01*
X0192185Y0226712D01*
X0192316Y0226604D01*
X0192444Y0226493D01*
X0192569Y0226380D01*
X0192692Y0226263D01*
X0192811Y0226143D01*
X0192928Y0226020D01*
X0193042Y0225894D01*
X0193152Y0225766D01*
X0193260Y0225635D01*
X0193364Y0225501D01*
X0193465Y0225365D01*
X0193562Y0225227D01*
X0193656Y0225086D01*
X0193747Y0224943D01*
X0193834Y0224798D01*
X0193918Y0224651D01*
X0193998Y0224501D01*
X0194074Y0224350D01*
X0194147Y0224197D01*
X0194216Y0224043D01*
X0194281Y0223886D01*
X0194342Y0223728D01*
X0194400Y0223569D01*
X0194453Y0223408D01*
X0194503Y0223247D01*
X0194548Y0223083D01*
X0194590Y0222919D01*
X0194628Y0222754D01*
X0194661Y0222588D01*
X0194691Y0222421D01*
X0194717Y0222254D01*
X0194738Y0222086D01*
X0194755Y0221918D01*
X0194769Y0221749D01*
X0194778Y0221580D01*
X0194783Y0221410D01*
X0194784Y0221241D01*
X0194781Y0221072D01*
X0194773Y0220903D01*
X0194762Y0220734D01*
X0194746Y0220565D01*
X0194727Y0220397D01*
X0194703Y0220229D01*
X0194675Y0220062D01*
X0194643Y0219896D01*
X0194607Y0219730D01*
X0194568Y0219566D01*
X0194524Y0219402D01*
X0194476Y0219240D01*
X0194424Y0219078D01*
X0194368Y0218918D01*
X0194309Y0218760D01*
X0194245Y0218603D01*
X0194178Y0218447D01*
X0194107Y0218294D01*
X0194032Y0218142D01*
X0193954Y0217992D01*
X0193872Y0217843D01*
X0193786Y0217697D01*
X0193697Y0217553D01*
X0193605Y0217411D01*
X0193508Y0217272D01*
X0193409Y0217135D01*
X0193306Y0217000D01*
X0193200Y0216868D01*
X0193091Y0216739D01*
X0192979Y0216612D01*
X0192864Y0216488D01*
X0192745Y0216367D01*
X0112036Y0135658D01*
X0095107Y0102981D02*
X0094937Y0103350D01*
X0094776Y0103723D01*
X0094624Y0104100D01*
X0094482Y0104481D01*
X0094349Y0104865D01*
X0094225Y0105252D01*
X0094111Y0105642D01*
X0094006Y0106035D01*
X0093911Y0106430D01*
X0093826Y0106827D01*
X0093750Y0107227D01*
X0093684Y0107628D01*
X0093629Y0108030D01*
X0093582Y0108434D01*
X0093546Y0108839D01*
X0093520Y0109244D01*
X0093504Y0109651D01*
X0093497Y0110057D01*
X0093501Y0110463D01*
X0093514Y0110869D01*
X0093537Y0111275D01*
X0093571Y0111680D01*
X0093614Y0112084D01*
X0093667Y0112487D01*
X0093730Y0112889D01*
X0093802Y0113289D01*
X0093885Y0113687D01*
X0093977Y0114083D01*
X0094079Y0114476D01*
X0094190Y0114867D01*
X0094311Y0115255D01*
X0094441Y0115640D01*
X0094581Y0116021D01*
X0094730Y0116400D01*
X0094888Y0116774D01*
X0095056Y0117144D01*
X0095232Y0117510D01*
X0095417Y0117872D01*
X0095611Y0118229D01*
X0095814Y0118582D01*
X0096025Y0118929D01*
X0096245Y0119271D01*
X0096473Y0119607D01*
X0096709Y0119938D01*
X0096953Y0120263D01*
X0097205Y0120582D01*
X0097465Y0120894D01*
X0097732Y0121200D01*
X0098007Y0121500D01*
X0098289Y0121793D01*
X0098578Y0122078D01*
X0098874Y0122357D01*
X0099176Y0122628D01*
X0099486Y0122892D01*
X0099801Y0123148D01*
X0100123Y0123396D01*
X0100451Y0123637D01*
X0100784Y0123869D01*
X0101123Y0124093D01*
X0101468Y0124309D01*
X0101817Y0124516D01*
X0102172Y0124715D01*
X0102531Y0124905D01*
X0102895Y0125086D01*
X0103263Y0125258D01*
X0103635Y0125421D01*
X0104012Y0125575D01*
X0104391Y0125720D01*
X0104775Y0125855D01*
X0105161Y0125981D01*
X0105550Y0126097D01*
X0105942Y0126204D01*
X0106337Y0126301D01*
X0106734Y0126389D01*
X0107133Y0126467D01*
X0107533Y0126535D01*
X0107936Y0126593D01*
X0108339Y0126642D01*
X0108744Y0126680D01*
X0109149Y0126709D01*
X0109555Y0126728D01*
X0109961Y0126736D01*
X0110368Y0126735D01*
X0110774Y0126724D01*
X0111180Y0126703D01*
X0111585Y0126672D01*
X0111990Y0126631D01*
X0112393Y0126580D01*
X0112795Y0126520D01*
X0113195Y0126449D01*
X0113593Y0126369D01*
X0113990Y0126279D01*
X0114384Y0126180D01*
X0114775Y0126071D01*
X0115164Y0125952D01*
X0115550Y0125824D01*
X0115932Y0125686D01*
X0116311Y0125540D01*
X0116686Y0125384D01*
X0117058Y0125218D01*
X0117425Y0125044D01*
X0117788Y0124861D01*
X0118146Y0124669D01*
X0118499Y0124468D01*
X0118848Y0124259D01*
X0119191Y0124041D01*
X0119529Y0123815D01*
X0119861Y0123581D01*
X0120187Y0123339D01*
X0120507Y0123089D01*
X0120821Y0122831D01*
X0121129Y0122565D01*
X0121430Y0122292D01*
X0121725Y0122012D01*
X0122012Y0121725D01*
X0122292Y0121430D01*
X0122565Y0121129D01*
X0122831Y0120821D01*
X0123089Y0120507D01*
X0123339Y0120187D01*
X0123581Y0119861D01*
X0123815Y0119529D01*
X0124041Y0119191D01*
X0124259Y0118848D01*
X0124468Y0118499D01*
X0124669Y0118146D01*
X0124861Y0117788D01*
X0125044Y0117425D01*
X0125218Y0117058D01*
X0125384Y0116686D01*
X0125540Y0116311D01*
X0125686Y0115932D01*
X0125824Y0115550D01*
X0125952Y0115164D01*
X0126071Y0114775D01*
X0126180Y0114384D01*
X0126279Y0113990D01*
X0126369Y0113593D01*
X0126449Y0113195D01*
X0126520Y0112795D01*
X0126580Y0112393D01*
X0126631Y0111990D01*
X0126672Y0111585D01*
X0126703Y0111180D01*
X0126724Y0110774D01*
X0126735Y0110368D01*
X0126736Y0109961D01*
X0126728Y0109555D01*
X0126709Y0109149D01*
X0126680Y0108744D01*
X0126642Y0108339D01*
X0126593Y0107936D01*
X0126535Y0107533D01*
X0126467Y0107133D01*
X0126389Y0106734D01*
X0126301Y0106337D01*
X0126204Y0105942D01*
X0126097Y0105550D01*
X0125981Y0105161D01*
X0125855Y0104775D01*
X0125720Y0104391D01*
X0125575Y0104012D01*
X0125421Y0103635D01*
X0125258Y0103263D01*
X0125086Y0102895D01*
X0124905Y0102531D01*
X0124715Y0102172D01*
X0124516Y0101817D01*
X0124309Y0101468D01*
X0124093Y0101123D01*
X0123869Y0100784D01*
X0123637Y0100451D01*
X0123396Y0100123D01*
X0123148Y0099801D01*
X0122892Y0099486D01*
X0122628Y0099176D01*
X0122357Y0098874D01*
X0122078Y0098578D01*
X0121793Y0098289D01*
X0121500Y0098007D01*
X0121200Y0097732D01*
X0120894Y0097465D01*
X0120582Y0097205D01*
X0120263Y0096953D01*
X0119938Y0096709D01*
X0119607Y0096473D01*
X0119271Y0096245D01*
X0118929Y0096025D01*
X0118582Y0095814D01*
X0118229Y0095611D01*
X0117872Y0095417D01*
X0117510Y0095232D01*
X0117144Y0095056D01*
X0116774Y0094888D01*
X0116400Y0094730D01*
X0116021Y0094581D01*
X0115640Y0094441D01*
X0115255Y0094311D01*
X0114867Y0094190D01*
X0114476Y0094079D01*
X0114083Y0093977D01*
X0113687Y0093885D01*
X0113289Y0093802D01*
X0112889Y0093730D01*
X0112487Y0093667D01*
X0112084Y0093614D01*
X0111680Y0093571D01*
X0111275Y0093537D01*
X0110869Y0093514D01*
X0110463Y0093501D01*
X0110057Y0093497D01*
X0109651Y0093504D01*
X0109244Y0093520D01*
X0108839Y0093546D01*
X0108434Y0093582D01*
X0108030Y0093629D01*
X0107628Y0093684D01*
X0107227Y0093750D01*
X0106827Y0093826D01*
X0106430Y0093911D01*
X0106035Y0094006D01*
X0105642Y0094111D01*
X0105252Y0094225D01*
X0104865Y0094349D01*
X0104481Y0094482D01*
X0104100Y0094624D01*
X0103723Y0094776D01*
X0103350Y0094937D01*
X0102981Y0095107D01*
X0088415Y0096289D02*
X0088086Y0096819D01*
X0087770Y0097358D01*
X0087467Y0097905D01*
X0087178Y0098458D01*
X0086902Y0099018D01*
X0086640Y0099585D01*
X0086392Y0100158D01*
X0086158Y0100737D01*
X0085938Y0101322D01*
X0085733Y0101912D01*
X0085541Y0102506D01*
X0085365Y0103105D01*
X0085202Y0103708D01*
X0085055Y0104315D01*
X0084922Y0104925D01*
X0084805Y0105539D01*
X0084702Y0106155D01*
X0084614Y0106773D01*
X0084542Y0107393D01*
X0084484Y0108015D01*
X0084442Y0108638D01*
X0084415Y0109262D01*
X0084403Y0109887D01*
X0084406Y0110511D01*
X0084424Y0111135D01*
X0084458Y0111759D01*
X0084506Y0112381D01*
X0084570Y0113003D01*
X0084649Y0113622D01*
X0084743Y0114240D01*
X0084852Y0114855D01*
X0084976Y0115467D01*
X0085115Y0116076D01*
X0085269Y0116681D01*
X0085437Y0117282D01*
X0085620Y0117879D01*
X0085817Y0118472D01*
X0086029Y0119060D01*
X0086254Y0119642D01*
X0086494Y0120218D01*
X0086748Y0120789D01*
X0087016Y0121353D01*
X0087297Y0121911D01*
X0087592Y0122461D01*
X0087901Y0123004D01*
X0088222Y0123540D01*
X0088556Y0124067D01*
X0088903Y0124587D01*
X0089263Y0125097D01*
X0089634Y0125599D01*
X0090018Y0126092D01*
X0090414Y0126575D01*
X0090822Y0127048D01*
X0091240Y0127511D01*
X0091670Y0127964D01*
X0092111Y0128406D01*
X0092563Y0128838D01*
X0093025Y0129258D01*
X0093497Y0129667D01*
X0093978Y0130065D01*
X0094470Y0130450D01*
X0094970Y0130824D01*
X0095480Y0131185D01*
X0095998Y0131534D01*
X0096524Y0131870D01*
X0097059Y0132193D01*
X0097601Y0132503D01*
X0098150Y0132799D01*
X0098707Y0133083D01*
X0099270Y0133352D01*
X0099840Y0133608D01*
X0100416Y0133850D01*
X0100997Y0134078D01*
X0101584Y0134291D01*
X0102176Y0134491D01*
X0102772Y0134675D01*
X0103373Y0134846D01*
X0103978Y0135001D01*
X0104587Y0135142D01*
X0105198Y0135268D01*
X0105813Y0135379D01*
X0106430Y0135475D01*
X0107049Y0135556D01*
X0107670Y0135622D01*
X0108293Y0135673D01*
X0108916Y0135708D01*
X0109540Y0135729D01*
X0110165Y0135734D01*
X0110789Y0135724D01*
X0111413Y0135699D01*
X0112036Y0135658D01*
X0275225Y0259477D02*
X0275227Y0259582D01*
X0275233Y0259687D01*
X0275243Y0259791D01*
X0275257Y0259895D01*
X0275275Y0259999D01*
X0275297Y0260101D01*
X0275322Y0260203D01*
X0275352Y0260304D01*
X0275385Y0260403D01*
X0275422Y0260501D01*
X0275463Y0260598D01*
X0275508Y0260693D01*
X0275556Y0260786D01*
X0275607Y0260878D01*
X0275663Y0260967D01*
X0275721Y0261054D01*
X0275783Y0261139D01*
X0275847Y0261222D01*
X0275915Y0261302D01*
X0275986Y0261379D01*
X0276060Y0261453D01*
X0276137Y0261525D01*
X0276216Y0261594D01*
X0276298Y0261659D01*
X0276382Y0261722D01*
X0276469Y0261781D01*
X0276558Y0261837D01*
X0276649Y0261890D01*
X0276742Y0261939D01*
X0276836Y0261984D01*
X0276932Y0262026D01*
X0277030Y0262064D01*
X0277129Y0262098D01*
X0277230Y0262129D01*
X0277331Y0262155D01*
X0277434Y0262178D01*
X0277537Y0262197D01*
X0277641Y0262212D01*
X0277745Y0262223D01*
X0277850Y0262230D01*
X0277955Y0262233D01*
X0278060Y0262232D01*
X0278165Y0262227D01*
X0278269Y0262218D01*
X0278373Y0262205D01*
X0278477Y0262188D01*
X0278580Y0262167D01*
X0278682Y0262142D01*
X0278783Y0262114D01*
X0278882Y0262081D01*
X0278981Y0262045D01*
X0279078Y0262005D01*
X0279173Y0261962D01*
X0279267Y0261914D01*
X0279359Y0261864D01*
X0279449Y0261810D01*
X0279537Y0261752D01*
X0279622Y0261691D01*
X0279705Y0261627D01*
X0279786Y0261560D01*
X0279864Y0261490D01*
X0279939Y0261416D01*
X0280011Y0261341D01*
X0280081Y0261262D01*
X0280147Y0261181D01*
X0280211Y0261097D01*
X0280271Y0261011D01*
X0280327Y0260923D01*
X0280381Y0260832D01*
X0280431Y0260740D01*
X0280477Y0260646D01*
X0280520Y0260550D01*
X0280559Y0260452D01*
X0280594Y0260354D01*
X0280625Y0260253D01*
X0280653Y0260152D01*
X0280677Y0260050D01*
X0280697Y0259947D01*
X0280713Y0259843D01*
X0280725Y0259739D01*
X0280733Y0259634D01*
X0280737Y0259529D01*
X0280737Y0259425D01*
X0280733Y0259320D01*
X0280725Y0259215D01*
X0280713Y0259111D01*
X0280697Y0259007D01*
X0280677Y0258904D01*
X0280653Y0258802D01*
X0280625Y0258701D01*
X0280594Y0258600D01*
X0280559Y0258502D01*
X0280520Y0258404D01*
X0280477Y0258308D01*
X0280431Y0258214D01*
X0280381Y0258122D01*
X0280327Y0258031D01*
X0280271Y0257943D01*
X0280211Y0257857D01*
X0280147Y0257773D01*
X0280081Y0257692D01*
X0280011Y0257613D01*
X0279939Y0257538D01*
X0279864Y0257464D01*
X0279786Y0257394D01*
X0279705Y0257327D01*
X0279622Y0257263D01*
X0279537Y0257202D01*
X0279449Y0257144D01*
X0279359Y0257090D01*
X0279267Y0257040D01*
X0279173Y0256992D01*
X0279078Y0256949D01*
X0278981Y0256909D01*
X0278882Y0256873D01*
X0278783Y0256840D01*
X0278682Y0256812D01*
X0278580Y0256787D01*
X0278477Y0256766D01*
X0278373Y0256749D01*
X0278269Y0256736D01*
X0278165Y0256727D01*
X0278060Y0256722D01*
X0277955Y0256721D01*
X0277850Y0256724D01*
X0277745Y0256731D01*
X0277641Y0256742D01*
X0277537Y0256757D01*
X0277434Y0256776D01*
X0277331Y0256799D01*
X0277230Y0256825D01*
X0277129Y0256856D01*
X0277030Y0256890D01*
X0276932Y0256928D01*
X0276836Y0256970D01*
X0276742Y0257015D01*
X0276649Y0257064D01*
X0276558Y0257117D01*
X0276469Y0257173D01*
X0276382Y0257232D01*
X0276298Y0257295D01*
X0276216Y0257360D01*
X0276137Y0257429D01*
X0276060Y0257501D01*
X0275986Y0257575D01*
X0275915Y0257652D01*
X0275847Y0257732D01*
X0275783Y0257815D01*
X0275721Y0257900D01*
X0275663Y0257987D01*
X0275607Y0258076D01*
X0275556Y0258168D01*
X0275508Y0258261D01*
X0275463Y0258356D01*
X0275422Y0258453D01*
X0275385Y0258551D01*
X0275352Y0258650D01*
X0275322Y0258751D01*
X0275297Y0258853D01*
X0275275Y0258955D01*
X0275257Y0259059D01*
X0275243Y0259163D01*
X0275233Y0259267D01*
X0275227Y0259372D01*
X0275225Y0259477D01*
X0333099Y0259477D02*
X0333101Y0259582D01*
X0333107Y0259687D01*
X0333117Y0259791D01*
X0333131Y0259895D01*
X0333149Y0259999D01*
X0333171Y0260101D01*
X0333196Y0260203D01*
X0333226Y0260304D01*
X0333259Y0260403D01*
X0333296Y0260501D01*
X0333337Y0260598D01*
X0333382Y0260693D01*
X0333430Y0260786D01*
X0333481Y0260878D01*
X0333537Y0260967D01*
X0333595Y0261054D01*
X0333657Y0261139D01*
X0333721Y0261222D01*
X0333789Y0261302D01*
X0333860Y0261379D01*
X0333934Y0261453D01*
X0334011Y0261525D01*
X0334090Y0261594D01*
X0334172Y0261659D01*
X0334256Y0261722D01*
X0334343Y0261781D01*
X0334432Y0261837D01*
X0334523Y0261890D01*
X0334616Y0261939D01*
X0334710Y0261984D01*
X0334806Y0262026D01*
X0334904Y0262064D01*
X0335003Y0262098D01*
X0335104Y0262129D01*
X0335205Y0262155D01*
X0335308Y0262178D01*
X0335411Y0262197D01*
X0335515Y0262212D01*
X0335619Y0262223D01*
X0335724Y0262230D01*
X0335829Y0262233D01*
X0335934Y0262232D01*
X0336039Y0262227D01*
X0336143Y0262218D01*
X0336247Y0262205D01*
X0336351Y0262188D01*
X0336454Y0262167D01*
X0336556Y0262142D01*
X0336657Y0262114D01*
X0336756Y0262081D01*
X0336855Y0262045D01*
X0336952Y0262005D01*
X0337047Y0261962D01*
X0337141Y0261914D01*
X0337233Y0261864D01*
X0337323Y0261810D01*
X0337411Y0261752D01*
X0337496Y0261691D01*
X0337579Y0261627D01*
X0337660Y0261560D01*
X0337738Y0261490D01*
X0337813Y0261416D01*
X0337885Y0261341D01*
X0337955Y0261262D01*
X0338021Y0261181D01*
X0338085Y0261097D01*
X0338145Y0261011D01*
X0338201Y0260923D01*
X0338255Y0260832D01*
X0338305Y0260740D01*
X0338351Y0260646D01*
X0338394Y0260550D01*
X0338433Y0260452D01*
X0338468Y0260354D01*
X0338499Y0260253D01*
X0338527Y0260152D01*
X0338551Y0260050D01*
X0338571Y0259947D01*
X0338587Y0259843D01*
X0338599Y0259739D01*
X0338607Y0259634D01*
X0338611Y0259529D01*
X0338611Y0259425D01*
X0338607Y0259320D01*
X0338599Y0259215D01*
X0338587Y0259111D01*
X0338571Y0259007D01*
X0338551Y0258904D01*
X0338527Y0258802D01*
X0338499Y0258701D01*
X0338468Y0258600D01*
X0338433Y0258502D01*
X0338394Y0258404D01*
X0338351Y0258308D01*
X0338305Y0258214D01*
X0338255Y0258122D01*
X0338201Y0258031D01*
X0338145Y0257943D01*
X0338085Y0257857D01*
X0338021Y0257773D01*
X0337955Y0257692D01*
X0337885Y0257613D01*
X0337813Y0257538D01*
X0337738Y0257464D01*
X0337660Y0257394D01*
X0337579Y0257327D01*
X0337496Y0257263D01*
X0337411Y0257202D01*
X0337323Y0257144D01*
X0337233Y0257090D01*
X0337141Y0257040D01*
X0337047Y0256992D01*
X0336952Y0256949D01*
X0336855Y0256909D01*
X0336756Y0256873D01*
X0336657Y0256840D01*
X0336556Y0256812D01*
X0336454Y0256787D01*
X0336351Y0256766D01*
X0336247Y0256749D01*
X0336143Y0256736D01*
X0336039Y0256727D01*
X0335934Y0256722D01*
X0335829Y0256721D01*
X0335724Y0256724D01*
X0335619Y0256731D01*
X0335515Y0256742D01*
X0335411Y0256757D01*
X0335308Y0256776D01*
X0335205Y0256799D01*
X0335104Y0256825D01*
X0335003Y0256856D01*
X0334904Y0256890D01*
X0334806Y0256928D01*
X0334710Y0256970D01*
X0334616Y0257015D01*
X0334523Y0257064D01*
X0334432Y0257117D01*
X0334343Y0257173D01*
X0334256Y0257232D01*
X0334172Y0257295D01*
X0334090Y0257360D01*
X0334011Y0257429D01*
X0333934Y0257501D01*
X0333860Y0257575D01*
X0333789Y0257652D01*
X0333721Y0257732D01*
X0333657Y0257815D01*
X0333595Y0257900D01*
X0333537Y0257987D01*
X0333481Y0258076D01*
X0333430Y0258168D01*
X0333382Y0258261D01*
X0333337Y0258356D01*
X0333296Y0258453D01*
X0333259Y0258551D01*
X0333226Y0258650D01*
X0333196Y0258751D01*
X0333171Y0258853D01*
X0333149Y0258955D01*
X0333131Y0259059D01*
X0333117Y0259163D01*
X0333107Y0259267D01*
X0333101Y0259372D01*
X0333099Y0259477D01*
X0333099Y0354359D02*
X0333101Y0354464D01*
X0333107Y0354569D01*
X0333117Y0354673D01*
X0333131Y0354777D01*
X0333149Y0354881D01*
X0333171Y0354983D01*
X0333196Y0355085D01*
X0333226Y0355186D01*
X0333259Y0355285D01*
X0333296Y0355383D01*
X0333337Y0355480D01*
X0333382Y0355575D01*
X0333430Y0355668D01*
X0333481Y0355760D01*
X0333537Y0355849D01*
X0333595Y0355936D01*
X0333657Y0356021D01*
X0333721Y0356104D01*
X0333789Y0356184D01*
X0333860Y0356261D01*
X0333934Y0356335D01*
X0334011Y0356407D01*
X0334090Y0356476D01*
X0334172Y0356541D01*
X0334256Y0356604D01*
X0334343Y0356663D01*
X0334432Y0356719D01*
X0334523Y0356772D01*
X0334616Y0356821D01*
X0334710Y0356866D01*
X0334806Y0356908D01*
X0334904Y0356946D01*
X0335003Y0356980D01*
X0335104Y0357011D01*
X0335205Y0357037D01*
X0335308Y0357060D01*
X0335411Y0357079D01*
X0335515Y0357094D01*
X0335619Y0357105D01*
X0335724Y0357112D01*
X0335829Y0357115D01*
X0335934Y0357114D01*
X0336039Y0357109D01*
X0336143Y0357100D01*
X0336247Y0357087D01*
X0336351Y0357070D01*
X0336454Y0357049D01*
X0336556Y0357024D01*
X0336657Y0356996D01*
X0336756Y0356963D01*
X0336855Y0356927D01*
X0336952Y0356887D01*
X0337047Y0356844D01*
X0337141Y0356796D01*
X0337233Y0356746D01*
X0337323Y0356692D01*
X0337411Y0356634D01*
X0337496Y0356573D01*
X0337579Y0356509D01*
X0337660Y0356442D01*
X0337738Y0356372D01*
X0337813Y0356298D01*
X0337885Y0356223D01*
X0337955Y0356144D01*
X0338021Y0356063D01*
X0338085Y0355979D01*
X0338145Y0355893D01*
X0338201Y0355805D01*
X0338255Y0355714D01*
X0338305Y0355622D01*
X0338351Y0355528D01*
X0338394Y0355432D01*
X0338433Y0355334D01*
X0338468Y0355236D01*
X0338499Y0355135D01*
X0338527Y0355034D01*
X0338551Y0354932D01*
X0338571Y0354829D01*
X0338587Y0354725D01*
X0338599Y0354621D01*
X0338607Y0354516D01*
X0338611Y0354411D01*
X0338611Y0354307D01*
X0338607Y0354202D01*
X0338599Y0354097D01*
X0338587Y0353993D01*
X0338571Y0353889D01*
X0338551Y0353786D01*
X0338527Y0353684D01*
X0338499Y0353583D01*
X0338468Y0353482D01*
X0338433Y0353384D01*
X0338394Y0353286D01*
X0338351Y0353190D01*
X0338305Y0353096D01*
X0338255Y0353004D01*
X0338201Y0352913D01*
X0338145Y0352825D01*
X0338085Y0352739D01*
X0338021Y0352655D01*
X0337955Y0352574D01*
X0337885Y0352495D01*
X0337813Y0352420D01*
X0337738Y0352346D01*
X0337660Y0352276D01*
X0337579Y0352209D01*
X0337496Y0352145D01*
X0337411Y0352084D01*
X0337323Y0352026D01*
X0337233Y0351972D01*
X0337141Y0351922D01*
X0337047Y0351874D01*
X0336952Y0351831D01*
X0336855Y0351791D01*
X0336756Y0351755D01*
X0336657Y0351722D01*
X0336556Y0351694D01*
X0336454Y0351669D01*
X0336351Y0351648D01*
X0336247Y0351631D01*
X0336143Y0351618D01*
X0336039Y0351609D01*
X0335934Y0351604D01*
X0335829Y0351603D01*
X0335724Y0351606D01*
X0335619Y0351613D01*
X0335515Y0351624D01*
X0335411Y0351639D01*
X0335308Y0351658D01*
X0335205Y0351681D01*
X0335104Y0351707D01*
X0335003Y0351738D01*
X0334904Y0351772D01*
X0334806Y0351810D01*
X0334710Y0351852D01*
X0334616Y0351897D01*
X0334523Y0351946D01*
X0334432Y0351999D01*
X0334343Y0352055D01*
X0334256Y0352114D01*
X0334172Y0352177D01*
X0334090Y0352242D01*
X0334011Y0352311D01*
X0333934Y0352383D01*
X0333860Y0352457D01*
X0333789Y0352534D01*
X0333721Y0352614D01*
X0333657Y0352697D01*
X0333595Y0352782D01*
X0333537Y0352869D01*
X0333481Y0352958D01*
X0333430Y0353050D01*
X0333382Y0353143D01*
X0333337Y0353238D01*
X0333296Y0353335D01*
X0333259Y0353433D01*
X0333226Y0353532D01*
X0333196Y0353633D01*
X0333171Y0353735D01*
X0333149Y0353837D01*
X0333131Y0353941D01*
X0333117Y0354045D01*
X0333107Y0354149D01*
X0333101Y0354254D01*
X0333099Y0354359D01*
X0275225Y0354359D02*
X0275227Y0354464D01*
X0275233Y0354569D01*
X0275243Y0354673D01*
X0275257Y0354777D01*
X0275275Y0354881D01*
X0275297Y0354983D01*
X0275322Y0355085D01*
X0275352Y0355186D01*
X0275385Y0355285D01*
X0275422Y0355383D01*
X0275463Y0355480D01*
X0275508Y0355575D01*
X0275556Y0355668D01*
X0275607Y0355760D01*
X0275663Y0355849D01*
X0275721Y0355936D01*
X0275783Y0356021D01*
X0275847Y0356104D01*
X0275915Y0356184D01*
X0275986Y0356261D01*
X0276060Y0356335D01*
X0276137Y0356407D01*
X0276216Y0356476D01*
X0276298Y0356541D01*
X0276382Y0356604D01*
X0276469Y0356663D01*
X0276558Y0356719D01*
X0276649Y0356772D01*
X0276742Y0356821D01*
X0276836Y0356866D01*
X0276932Y0356908D01*
X0277030Y0356946D01*
X0277129Y0356980D01*
X0277230Y0357011D01*
X0277331Y0357037D01*
X0277434Y0357060D01*
X0277537Y0357079D01*
X0277641Y0357094D01*
X0277745Y0357105D01*
X0277850Y0357112D01*
X0277955Y0357115D01*
X0278060Y0357114D01*
X0278165Y0357109D01*
X0278269Y0357100D01*
X0278373Y0357087D01*
X0278477Y0357070D01*
X0278580Y0357049D01*
X0278682Y0357024D01*
X0278783Y0356996D01*
X0278882Y0356963D01*
X0278981Y0356927D01*
X0279078Y0356887D01*
X0279173Y0356844D01*
X0279267Y0356796D01*
X0279359Y0356746D01*
X0279449Y0356692D01*
X0279537Y0356634D01*
X0279622Y0356573D01*
X0279705Y0356509D01*
X0279786Y0356442D01*
X0279864Y0356372D01*
X0279939Y0356298D01*
X0280011Y0356223D01*
X0280081Y0356144D01*
X0280147Y0356063D01*
X0280211Y0355979D01*
X0280271Y0355893D01*
X0280327Y0355805D01*
X0280381Y0355714D01*
X0280431Y0355622D01*
X0280477Y0355528D01*
X0280520Y0355432D01*
X0280559Y0355334D01*
X0280594Y0355236D01*
X0280625Y0355135D01*
X0280653Y0355034D01*
X0280677Y0354932D01*
X0280697Y0354829D01*
X0280713Y0354725D01*
X0280725Y0354621D01*
X0280733Y0354516D01*
X0280737Y0354411D01*
X0280737Y0354307D01*
X0280733Y0354202D01*
X0280725Y0354097D01*
X0280713Y0353993D01*
X0280697Y0353889D01*
X0280677Y0353786D01*
X0280653Y0353684D01*
X0280625Y0353583D01*
X0280594Y0353482D01*
X0280559Y0353384D01*
X0280520Y0353286D01*
X0280477Y0353190D01*
X0280431Y0353096D01*
X0280381Y0353004D01*
X0280327Y0352913D01*
X0280271Y0352825D01*
X0280211Y0352739D01*
X0280147Y0352655D01*
X0280081Y0352574D01*
X0280011Y0352495D01*
X0279939Y0352420D01*
X0279864Y0352346D01*
X0279786Y0352276D01*
X0279705Y0352209D01*
X0279622Y0352145D01*
X0279537Y0352084D01*
X0279449Y0352026D01*
X0279359Y0351972D01*
X0279267Y0351922D01*
X0279173Y0351874D01*
X0279078Y0351831D01*
X0278981Y0351791D01*
X0278882Y0351755D01*
X0278783Y0351722D01*
X0278682Y0351694D01*
X0278580Y0351669D01*
X0278477Y0351648D01*
X0278373Y0351631D01*
X0278269Y0351618D01*
X0278165Y0351609D01*
X0278060Y0351604D01*
X0277955Y0351603D01*
X0277850Y0351606D01*
X0277745Y0351613D01*
X0277641Y0351624D01*
X0277537Y0351639D01*
X0277434Y0351658D01*
X0277331Y0351681D01*
X0277230Y0351707D01*
X0277129Y0351738D01*
X0277030Y0351772D01*
X0276932Y0351810D01*
X0276836Y0351852D01*
X0276742Y0351897D01*
X0276649Y0351946D01*
X0276558Y0351999D01*
X0276469Y0352055D01*
X0276382Y0352114D01*
X0276298Y0352177D01*
X0276216Y0352242D01*
X0276137Y0352311D01*
X0276060Y0352383D01*
X0275986Y0352457D01*
X0275915Y0352534D01*
X0275847Y0352614D01*
X0275783Y0352697D01*
X0275721Y0352782D01*
X0275663Y0352869D01*
X0275607Y0352958D01*
X0275556Y0353050D01*
X0275508Y0353143D01*
X0275463Y0353238D01*
X0275422Y0353335D01*
X0275385Y0353433D01*
X0275352Y0353532D01*
X0275322Y0353633D01*
X0275297Y0353735D01*
X0275275Y0353837D01*
X0275257Y0353941D01*
X0275243Y0354045D01*
X0275233Y0354149D01*
X0275227Y0354254D01*
X0275225Y0354359D01*
X0421091Y0397469D02*
X0420969Y0397361D01*
X0420849Y0397249D01*
X0420732Y0397134D01*
X0420618Y0397017D01*
X0420507Y0396897D01*
X0420399Y0396774D01*
X0420294Y0396649D01*
X0420191Y0396521D01*
X0420092Y0396391D01*
X0419997Y0396258D01*
X0419904Y0396123D01*
X0419815Y0395986D01*
X0419729Y0395847D01*
X0419646Y0395705D01*
X0419567Y0395562D01*
X0419492Y0395417D01*
X0419420Y0395270D01*
X0419351Y0395121D01*
X0419286Y0394971D01*
X0419225Y0394819D01*
X0419168Y0394666D01*
X0419114Y0394511D01*
X0419064Y0394355D01*
X0419018Y0394198D01*
X0418976Y0394040D01*
X0418938Y0393881D01*
X0418903Y0393721D01*
X0418872Y0393560D01*
X0418846Y0393399D01*
X0418823Y0393237D01*
X0418804Y0393074D01*
X0418789Y0392911D01*
X0418778Y0392748D01*
X0418771Y0392584D01*
X0418768Y0392421D01*
X0418769Y0392257D01*
X0418774Y0392093D01*
X0418783Y0391930D01*
X0418796Y0391767D01*
X0418813Y0391604D01*
X0418834Y0391442D01*
X0418858Y0391280D01*
X0418887Y0391119D01*
X0418919Y0390958D01*
X0418956Y0390799D01*
X0418996Y0390640D01*
X0419040Y0390483D01*
X0419088Y0390326D01*
X0419140Y0390171D01*
X0419196Y0390017D01*
X0419255Y0389864D01*
X0419318Y0389713D01*
X0419384Y0389564D01*
X0419455Y0389416D01*
X0419528Y0389270D01*
X0419606Y0389125D01*
X0419686Y0388983D01*
X0419771Y0388843D01*
X0419858Y0388704D01*
X0419949Y0388568D01*
X0420043Y0388435D01*
X0420141Y0388303D01*
X0420241Y0388174D01*
X0420345Y0388047D01*
X0420452Y0387923D01*
X0420561Y0387802D01*
X0420674Y0387683D01*
X0420789Y0387567D01*
X0420908Y0387454D01*
X0421029Y0387344D01*
X0421152Y0387236D01*
X0421279Y0387132D01*
X0421407Y0387031D01*
X0421538Y0386933D01*
X0421672Y0386838D01*
X0421807Y0386747D01*
X0421945Y0386659D01*
X0422085Y0386574D01*
X0422227Y0386492D01*
X0422371Y0386415D01*
X0422517Y0386340D01*
X0422665Y0386269D01*
X0422814Y0386202D01*
X0422965Y0386139D01*
X0423117Y0386079D01*
X0423271Y0386023D01*
X0423426Y0385970D01*
X0423582Y0385922D01*
X0423739Y0385877D01*
X0423898Y0385836D01*
X0424057Y0385799D01*
X0424218Y0385765D01*
X0424379Y0385736D01*
X0424540Y0385711D01*
X0424703Y0385689D01*
X0424865Y0385672D01*
X0425028Y0385658D01*
X0518728Y0510855D02*
X0518897Y0510487D01*
X0519057Y0510115D01*
X0519207Y0509740D01*
X0519349Y0509360D01*
X0519481Y0508978D01*
X0519603Y0508592D01*
X0519717Y0508204D01*
X0519820Y0507813D01*
X0519914Y0507419D01*
X0519999Y0507024D01*
X0520073Y0506626D01*
X0520138Y0506227D01*
X0520194Y0505826D01*
X0520239Y0505424D01*
X0520275Y0505021D01*
X0520300Y0504617D01*
X0520316Y0504213D01*
X0520322Y0503808D01*
X0520318Y0503404D01*
X0520304Y0502999D01*
X0520280Y0502595D01*
X0520247Y0502192D01*
X0520203Y0501790D01*
X0520150Y0501389D01*
X0520087Y0500989D01*
X0520014Y0500591D01*
X0519932Y0500195D01*
X0519840Y0499801D01*
X0519738Y0499409D01*
X0519627Y0499020D01*
X0519506Y0498634D01*
X0519376Y0498251D01*
X0519236Y0497871D01*
X0519087Y0497495D01*
X0518930Y0497123D01*
X0518763Y0496754D01*
X0518587Y0496390D01*
X0518402Y0496030D01*
X0518209Y0495674D01*
X0518006Y0495324D01*
X0517796Y0494978D01*
X0517577Y0494638D01*
X0517350Y0494304D01*
X0517114Y0493974D01*
X0516871Y0493651D01*
X0516620Y0493334D01*
X0516361Y0493023D01*
X0516095Y0492718D01*
X0515821Y0492421D01*
X0515540Y0492129D01*
X0515252Y0491845D01*
X0514957Y0491568D01*
X0514656Y0491298D01*
X0514348Y0491036D01*
X0514033Y0490781D01*
X0513713Y0490534D01*
X0513386Y0490295D01*
X0513054Y0490064D01*
X0512717Y0489841D01*
X0512374Y0489627D01*
X0512025Y0489420D01*
X0511672Y0489223D01*
X0511314Y0489034D01*
X0510952Y0488854D01*
X0510585Y0488683D01*
X0510215Y0488521D01*
X0509840Y0488368D01*
X0509462Y0488224D01*
X0509080Y0488090D01*
X0508696Y0487964D01*
X0508308Y0487849D01*
X0507918Y0487743D01*
X0507525Y0487646D01*
X0507130Y0487559D01*
X0506732Y0487482D01*
X0506334Y0487414D01*
X0505933Y0487356D01*
X0505531Y0487308D01*
X0505129Y0487270D01*
X0504725Y0487242D01*
X0504321Y0487223D01*
X0503916Y0487215D01*
X0503512Y0487216D01*
X0503107Y0487227D01*
X0502703Y0487248D01*
X0502300Y0487279D01*
X0501897Y0487320D01*
X0501496Y0487371D01*
X0501096Y0487431D01*
X0500697Y0487501D01*
X0500301Y0487581D01*
X0499906Y0487671D01*
X0499514Y0487770D01*
X0499124Y0487879D01*
X0498737Y0487997D01*
X0498353Y0488125D01*
X0497973Y0488262D01*
X0497595Y0488408D01*
X0497222Y0488563D01*
X0496852Y0488728D01*
X0496487Y0488901D01*
X0496126Y0489084D01*
X0495769Y0489275D01*
X0495417Y0489475D01*
X0495070Y0489683D01*
X0494729Y0489900D01*
X0494392Y0490125D01*
X0494062Y0490358D01*
X0493737Y0490599D01*
X0493418Y0490848D01*
X0493105Y0491105D01*
X0492799Y0491370D01*
X0492499Y0491641D01*
X0492206Y0491920D01*
X0491920Y0492206D01*
X0491641Y0492499D01*
X0491370Y0492799D01*
X0491105Y0493105D01*
X0490848Y0493418D01*
X0490599Y0493737D01*
X0490358Y0494062D01*
X0490125Y0494392D01*
X0489900Y0494729D01*
X0489683Y0495070D01*
X0489475Y0495417D01*
X0489275Y0495769D01*
X0489084Y0496126D01*
X0488901Y0496487D01*
X0488728Y0496852D01*
X0488563Y0497222D01*
X0488408Y0497595D01*
X0488262Y0497973D01*
X0488125Y0498353D01*
X0487997Y0498737D01*
X0487879Y0499124D01*
X0487770Y0499514D01*
X0487671Y0499906D01*
X0487581Y0500301D01*
X0487501Y0500697D01*
X0487431Y0501096D01*
X0487371Y0501496D01*
X0487320Y0501897D01*
X0487279Y0502300D01*
X0487248Y0502703D01*
X0487227Y0503107D01*
X0487216Y0503512D01*
X0487215Y0503916D01*
X0487223Y0504321D01*
X0487242Y0504725D01*
X0487270Y0505129D01*
X0487308Y0505531D01*
X0487356Y0505933D01*
X0487414Y0506334D01*
X0487482Y0506732D01*
X0487559Y0507130D01*
X0487646Y0507525D01*
X0487743Y0507918D01*
X0487849Y0508308D01*
X0487964Y0508696D01*
X0488090Y0509080D01*
X0488224Y0509462D01*
X0488368Y0509840D01*
X0488521Y0510215D01*
X0488683Y0510585D01*
X0488854Y0510952D01*
X0489034Y0511314D01*
X0489223Y0511672D01*
X0489420Y0512025D01*
X0489627Y0512374D01*
X0489841Y0512717D01*
X0490064Y0513054D01*
X0490295Y0513386D01*
X0490534Y0513713D01*
X0490781Y0514033D01*
X0491036Y0514348D01*
X0491298Y0514656D01*
X0491568Y0514957D01*
X0491845Y0515252D01*
X0492129Y0515540D01*
X0492421Y0515821D01*
X0492718Y0516095D01*
X0493023Y0516361D01*
X0493334Y0516620D01*
X0493651Y0516871D01*
X0493974Y0517114D01*
X0494304Y0517350D01*
X0494638Y0517577D01*
X0494978Y0517796D01*
X0495324Y0518006D01*
X0495674Y0518209D01*
X0496030Y0518402D01*
X0496390Y0518587D01*
X0496754Y0518763D01*
X0497123Y0518930D01*
X0497495Y0519087D01*
X0497871Y0519236D01*
X0498251Y0519376D01*
X0498634Y0519506D01*
X0499020Y0519627D01*
X0499409Y0519738D01*
X0499801Y0519840D01*
X0500195Y0519932D01*
X0500591Y0520014D01*
X0500989Y0520087D01*
X0501389Y0520150D01*
X0501790Y0520203D01*
X0502192Y0520247D01*
X0502595Y0520280D01*
X0502999Y0520304D01*
X0503404Y0520318D01*
X0503808Y0520322D01*
X0504213Y0520316D01*
X0504617Y0520300D01*
X0505021Y0520275D01*
X0505424Y0520239D01*
X0505826Y0520194D01*
X0506227Y0520138D01*
X0506626Y0520073D01*
X0507024Y0519999D01*
X0507419Y0519914D01*
X0507813Y0519820D01*
X0508204Y0519717D01*
X0508592Y0519603D01*
X0508978Y0519481D01*
X0509360Y0519349D01*
X0509740Y0519207D01*
X0510115Y0519057D01*
X0510487Y0518897D01*
X0510855Y0518728D01*
X0510855Y0518729D02*
X0517548Y0525422D01*
X0525422Y0517548D02*
X0518729Y0510855D01*
X0525422Y0517547D02*
X0525751Y0517017D01*
X0526067Y0516478D01*
X0526370Y0515931D01*
X0526659Y0515378D01*
X0526935Y0514818D01*
X0527197Y0514251D01*
X0527445Y0513678D01*
X0527679Y0513099D01*
X0527899Y0512514D01*
X0528104Y0511924D01*
X0528296Y0511330D01*
X0528472Y0510731D01*
X0528635Y0510128D01*
X0528782Y0509521D01*
X0528915Y0508911D01*
X0529032Y0508297D01*
X0529135Y0507681D01*
X0529223Y0507063D01*
X0529295Y0506443D01*
X0529353Y0505821D01*
X0529395Y0505198D01*
X0529422Y0504574D01*
X0529434Y0503949D01*
X0529431Y0503325D01*
X0529413Y0502701D01*
X0529379Y0502077D01*
X0529331Y0501455D01*
X0529267Y0500833D01*
X0529188Y0500214D01*
X0529094Y0499596D01*
X0528985Y0498981D01*
X0528861Y0498369D01*
X0528722Y0497760D01*
X0528568Y0497155D01*
X0528400Y0496554D01*
X0528217Y0495957D01*
X0528020Y0495364D01*
X0527808Y0494776D01*
X0527583Y0494194D01*
X0527343Y0493618D01*
X0527089Y0493047D01*
X0526821Y0492483D01*
X0526540Y0491925D01*
X0526245Y0491375D01*
X0525936Y0490832D01*
X0525615Y0490296D01*
X0525281Y0489769D01*
X0524934Y0489249D01*
X0524574Y0488739D01*
X0524203Y0488237D01*
X0523819Y0487744D01*
X0523423Y0487261D01*
X0523015Y0486788D01*
X0522597Y0486325D01*
X0522167Y0485872D01*
X0521726Y0485430D01*
X0521274Y0484998D01*
X0520812Y0484578D01*
X0520340Y0484169D01*
X0519859Y0483771D01*
X0519367Y0483386D01*
X0518867Y0483012D01*
X0518357Y0482651D01*
X0517839Y0482302D01*
X0517313Y0481966D01*
X0516778Y0481643D01*
X0516236Y0481333D01*
X0515687Y0481037D01*
X0515130Y0480753D01*
X0514567Y0480484D01*
X0513997Y0480228D01*
X0513421Y0479986D01*
X0512840Y0479758D01*
X0512253Y0479545D01*
X0511661Y0479345D01*
X0511065Y0479161D01*
X0510464Y0478990D01*
X0509859Y0478835D01*
X0509250Y0478694D01*
X0508639Y0478568D01*
X0508024Y0478457D01*
X0507407Y0478361D01*
X0506788Y0478280D01*
X0506167Y0478214D01*
X0505544Y0478163D01*
X0504921Y0478128D01*
X0504297Y0478107D01*
X0503672Y0478102D01*
X0503048Y0478112D01*
X0502424Y0478137D01*
X0501801Y0478178D01*
X0478178Y0501801D02*
X0478137Y0502424D01*
X0478112Y0503048D01*
X0478102Y0503672D01*
X0478107Y0504297D01*
X0478128Y0504921D01*
X0478163Y0505544D01*
X0478214Y0506167D01*
X0478280Y0506788D01*
X0478361Y0507407D01*
X0478457Y0508024D01*
X0478568Y0508639D01*
X0478694Y0509250D01*
X0478835Y0509859D01*
X0478990Y0510464D01*
X0479161Y0511065D01*
X0479345Y0511661D01*
X0479545Y0512253D01*
X0479758Y0512840D01*
X0479986Y0513421D01*
X0480228Y0513997D01*
X0480484Y0514567D01*
X0480753Y0515130D01*
X0481037Y0515687D01*
X0481333Y0516236D01*
X0481643Y0516778D01*
X0481966Y0517313D01*
X0482302Y0517839D01*
X0482651Y0518357D01*
X0483012Y0518867D01*
X0483386Y0519367D01*
X0483771Y0519859D01*
X0484169Y0520340D01*
X0484578Y0520812D01*
X0484998Y0521274D01*
X0485430Y0521726D01*
X0485872Y0522167D01*
X0486325Y0522597D01*
X0486788Y0523015D01*
X0487261Y0523423D01*
X0487744Y0523819D01*
X0488237Y0524203D01*
X0488739Y0524574D01*
X0489249Y0524934D01*
X0489769Y0525281D01*
X0490296Y0525615D01*
X0490832Y0525936D01*
X0491375Y0526245D01*
X0491925Y0526540D01*
X0492483Y0526821D01*
X0493047Y0527089D01*
X0493618Y0527343D01*
X0494194Y0527583D01*
X0494776Y0527808D01*
X0495364Y0528020D01*
X0495957Y0528217D01*
X0496554Y0528400D01*
X0497155Y0528568D01*
X0497760Y0528722D01*
X0498369Y0528861D01*
X0498981Y0528985D01*
X0499596Y0529094D01*
X0500214Y0529188D01*
X0500833Y0529267D01*
X0501455Y0529331D01*
X0502077Y0529379D01*
X0502701Y0529413D01*
X0503325Y0529431D01*
X0503949Y0529434D01*
X0504574Y0529422D01*
X0505198Y0529395D01*
X0505821Y0529353D01*
X0506443Y0529295D01*
X0507063Y0529223D01*
X0507681Y0529135D01*
X0508297Y0529032D01*
X0508911Y0528915D01*
X0509521Y0528782D01*
X0510128Y0528635D01*
X0510731Y0528472D01*
X0511330Y0528296D01*
X0511924Y0528104D01*
X0512514Y0527899D01*
X0513099Y0527679D01*
X0513678Y0527445D01*
X0514251Y0527197D01*
X0514818Y0526935D01*
X0515378Y0526659D01*
X0515931Y0526370D01*
X0516478Y0526067D01*
X0517017Y0525751D01*
X0517547Y0525422D01*
X0102981Y0518728D02*
X0103349Y0518897D01*
X0103721Y0519057D01*
X0104096Y0519207D01*
X0104476Y0519349D01*
X0104858Y0519481D01*
X0105244Y0519603D01*
X0105632Y0519717D01*
X0106023Y0519820D01*
X0106417Y0519914D01*
X0106812Y0519999D01*
X0107210Y0520073D01*
X0107609Y0520138D01*
X0108010Y0520194D01*
X0108412Y0520239D01*
X0108815Y0520275D01*
X0109219Y0520300D01*
X0109623Y0520316D01*
X0110028Y0520322D01*
X0110432Y0520318D01*
X0110837Y0520304D01*
X0111241Y0520280D01*
X0111644Y0520247D01*
X0112046Y0520203D01*
X0112447Y0520150D01*
X0112847Y0520087D01*
X0113245Y0520014D01*
X0113641Y0519932D01*
X0114035Y0519840D01*
X0114427Y0519738D01*
X0114816Y0519627D01*
X0115202Y0519506D01*
X0115585Y0519376D01*
X0115965Y0519236D01*
X0116341Y0519087D01*
X0116713Y0518930D01*
X0117082Y0518763D01*
X0117446Y0518587D01*
X0117806Y0518402D01*
X0118162Y0518209D01*
X0118512Y0518006D01*
X0118858Y0517796D01*
X0119198Y0517577D01*
X0119532Y0517350D01*
X0119862Y0517114D01*
X0120185Y0516871D01*
X0120502Y0516620D01*
X0120813Y0516361D01*
X0121118Y0516095D01*
X0121415Y0515821D01*
X0121707Y0515540D01*
X0121991Y0515252D01*
X0122268Y0514957D01*
X0122538Y0514656D01*
X0122800Y0514348D01*
X0123055Y0514033D01*
X0123302Y0513713D01*
X0123541Y0513386D01*
X0123772Y0513054D01*
X0123995Y0512717D01*
X0124209Y0512374D01*
X0124416Y0512025D01*
X0124613Y0511672D01*
X0124802Y0511314D01*
X0124982Y0510952D01*
X0125153Y0510585D01*
X0125315Y0510215D01*
X0125468Y0509840D01*
X0125612Y0509462D01*
X0125746Y0509080D01*
X0125872Y0508696D01*
X0125987Y0508308D01*
X0126093Y0507918D01*
X0126190Y0507525D01*
X0126277Y0507130D01*
X0126354Y0506732D01*
X0126422Y0506334D01*
X0126480Y0505933D01*
X0126528Y0505531D01*
X0126566Y0505129D01*
X0126594Y0504725D01*
X0126613Y0504321D01*
X0126621Y0503916D01*
X0126620Y0503512D01*
X0126609Y0503107D01*
X0126588Y0502703D01*
X0126557Y0502300D01*
X0126516Y0501897D01*
X0126465Y0501496D01*
X0126405Y0501096D01*
X0126335Y0500697D01*
X0126255Y0500301D01*
X0126165Y0499906D01*
X0126066Y0499514D01*
X0125957Y0499124D01*
X0125839Y0498737D01*
X0125711Y0498353D01*
X0125574Y0497973D01*
X0125428Y0497595D01*
X0125273Y0497222D01*
X0125108Y0496852D01*
X0124935Y0496487D01*
X0124752Y0496126D01*
X0124561Y0495769D01*
X0124361Y0495417D01*
X0124153Y0495070D01*
X0123936Y0494729D01*
X0123711Y0494392D01*
X0123478Y0494062D01*
X0123237Y0493737D01*
X0122988Y0493418D01*
X0122731Y0493105D01*
X0122466Y0492799D01*
X0122195Y0492499D01*
X0121916Y0492206D01*
X0121630Y0491920D01*
X0121337Y0491641D01*
X0121037Y0491370D01*
X0120731Y0491105D01*
X0120418Y0490848D01*
X0120099Y0490599D01*
X0119774Y0490358D01*
X0119444Y0490125D01*
X0119107Y0489900D01*
X0118766Y0489683D01*
X0118419Y0489475D01*
X0118067Y0489275D01*
X0117710Y0489084D01*
X0117349Y0488901D01*
X0116984Y0488728D01*
X0116614Y0488563D01*
X0116241Y0488408D01*
X0115863Y0488262D01*
X0115483Y0488125D01*
X0115099Y0487997D01*
X0114712Y0487879D01*
X0114322Y0487770D01*
X0113930Y0487671D01*
X0113535Y0487581D01*
X0113139Y0487501D01*
X0112740Y0487431D01*
X0112340Y0487371D01*
X0111939Y0487320D01*
X0111536Y0487279D01*
X0111133Y0487248D01*
X0110729Y0487227D01*
X0110324Y0487216D01*
X0109920Y0487215D01*
X0109515Y0487223D01*
X0109111Y0487242D01*
X0108707Y0487270D01*
X0108305Y0487308D01*
X0107903Y0487356D01*
X0107502Y0487414D01*
X0107104Y0487482D01*
X0106706Y0487559D01*
X0106311Y0487646D01*
X0105918Y0487743D01*
X0105528Y0487849D01*
X0105140Y0487964D01*
X0104756Y0488090D01*
X0104374Y0488224D01*
X0103996Y0488368D01*
X0103621Y0488521D01*
X0103251Y0488683D01*
X0102884Y0488854D01*
X0102522Y0489034D01*
X0102164Y0489223D01*
X0101811Y0489420D01*
X0101462Y0489627D01*
X0101119Y0489841D01*
X0100782Y0490064D01*
X0100450Y0490295D01*
X0100123Y0490534D01*
X0099803Y0490781D01*
X0099488Y0491036D01*
X0099180Y0491298D01*
X0098879Y0491568D01*
X0098584Y0491845D01*
X0098296Y0492129D01*
X0098015Y0492421D01*
X0097741Y0492718D01*
X0097475Y0493023D01*
X0097216Y0493334D01*
X0096965Y0493651D01*
X0096722Y0493974D01*
X0096486Y0494304D01*
X0096259Y0494638D01*
X0096040Y0494978D01*
X0095830Y0495324D01*
X0095627Y0495674D01*
X0095434Y0496030D01*
X0095249Y0496390D01*
X0095073Y0496754D01*
X0094906Y0497123D01*
X0094749Y0497495D01*
X0094600Y0497871D01*
X0094460Y0498251D01*
X0094330Y0498634D01*
X0094209Y0499020D01*
X0094098Y0499409D01*
X0093996Y0499801D01*
X0093904Y0500195D01*
X0093822Y0500591D01*
X0093749Y0500989D01*
X0093686Y0501389D01*
X0093633Y0501790D01*
X0093589Y0502192D01*
X0093556Y0502595D01*
X0093532Y0502999D01*
X0093518Y0503404D01*
X0093514Y0503808D01*
X0093520Y0504213D01*
X0093536Y0504617D01*
X0093561Y0505021D01*
X0093597Y0505424D01*
X0093642Y0505826D01*
X0093698Y0506227D01*
X0093763Y0506626D01*
X0093837Y0507024D01*
X0093922Y0507419D01*
X0094016Y0507813D01*
X0094119Y0508204D01*
X0094233Y0508592D01*
X0094355Y0508978D01*
X0094487Y0509360D01*
X0094629Y0509740D01*
X0094779Y0510115D01*
X0094939Y0510487D01*
X0095108Y0510855D01*
X0095107Y0510855D02*
X0088414Y0517548D01*
X0096288Y0525422D02*
X0102981Y0518729D01*
X0088415Y0517547D02*
X0088086Y0517017D01*
X0087770Y0516478D01*
X0087467Y0515931D01*
X0087178Y0515378D01*
X0086902Y0514818D01*
X0086640Y0514251D01*
X0086392Y0513678D01*
X0086158Y0513099D01*
X0085938Y0512514D01*
X0085733Y0511924D01*
X0085541Y0511330D01*
X0085365Y0510731D01*
X0085202Y0510128D01*
X0085055Y0509521D01*
X0084922Y0508911D01*
X0084805Y0508297D01*
X0084702Y0507681D01*
X0084614Y0507063D01*
X0084542Y0506443D01*
X0084484Y0505821D01*
X0084442Y0505198D01*
X0084415Y0504574D01*
X0084403Y0503949D01*
X0084406Y0503325D01*
X0084424Y0502701D01*
X0084458Y0502077D01*
X0084506Y0501455D01*
X0084570Y0500833D01*
X0084649Y0500214D01*
X0084743Y0499596D01*
X0084852Y0498981D01*
X0084976Y0498369D01*
X0085115Y0497760D01*
X0085269Y0497155D01*
X0085437Y0496554D01*
X0085620Y0495957D01*
X0085817Y0495364D01*
X0086029Y0494776D01*
X0086254Y0494194D01*
X0086494Y0493618D01*
X0086748Y0493047D01*
X0087016Y0492483D01*
X0087297Y0491925D01*
X0087592Y0491375D01*
X0087901Y0490832D01*
X0088222Y0490296D01*
X0088556Y0489769D01*
X0088903Y0489249D01*
X0089263Y0488739D01*
X0089634Y0488237D01*
X0090018Y0487744D01*
X0090414Y0487261D01*
X0090822Y0486788D01*
X0091240Y0486325D01*
X0091670Y0485872D01*
X0092111Y0485430D01*
X0092563Y0484998D01*
X0093025Y0484578D01*
X0093497Y0484169D01*
X0093978Y0483771D01*
X0094470Y0483386D01*
X0094970Y0483012D01*
X0095480Y0482651D01*
X0095998Y0482302D01*
X0096524Y0481966D01*
X0097059Y0481643D01*
X0097601Y0481333D01*
X0098150Y0481037D01*
X0098707Y0480753D01*
X0099270Y0480484D01*
X0099840Y0480228D01*
X0100416Y0479986D01*
X0100997Y0479758D01*
X0101584Y0479545D01*
X0102176Y0479345D01*
X0102772Y0479161D01*
X0103373Y0478990D01*
X0103978Y0478835D01*
X0104587Y0478694D01*
X0105198Y0478568D01*
X0105813Y0478457D01*
X0106430Y0478361D01*
X0107049Y0478280D01*
X0107670Y0478214D01*
X0108293Y0478163D01*
X0108916Y0478128D01*
X0109540Y0478107D01*
X0110165Y0478102D01*
X0110789Y0478112D01*
X0111413Y0478137D01*
X0112036Y0478178D01*
X0135658Y0501801D02*
X0135699Y0502424D01*
X0135724Y0503048D01*
X0135734Y0503672D01*
X0135729Y0504297D01*
X0135708Y0504921D01*
X0135673Y0505544D01*
X0135622Y0506167D01*
X0135556Y0506788D01*
X0135475Y0507407D01*
X0135379Y0508024D01*
X0135268Y0508639D01*
X0135142Y0509250D01*
X0135001Y0509859D01*
X0134846Y0510464D01*
X0134675Y0511065D01*
X0134491Y0511661D01*
X0134291Y0512253D01*
X0134078Y0512840D01*
X0133850Y0513421D01*
X0133608Y0513997D01*
X0133352Y0514567D01*
X0133083Y0515130D01*
X0132799Y0515687D01*
X0132503Y0516236D01*
X0132193Y0516778D01*
X0131870Y0517313D01*
X0131534Y0517839D01*
X0131185Y0518357D01*
X0130824Y0518867D01*
X0130450Y0519367D01*
X0130065Y0519859D01*
X0129667Y0520340D01*
X0129258Y0520812D01*
X0128838Y0521274D01*
X0128406Y0521726D01*
X0127964Y0522167D01*
X0127511Y0522597D01*
X0127048Y0523015D01*
X0126575Y0523423D01*
X0126092Y0523819D01*
X0125599Y0524203D01*
X0125097Y0524574D01*
X0124587Y0524934D01*
X0124067Y0525281D01*
X0123540Y0525615D01*
X0123004Y0525936D01*
X0122461Y0526245D01*
X0121911Y0526540D01*
X0121353Y0526821D01*
X0120789Y0527089D01*
X0120218Y0527343D01*
X0119642Y0527583D01*
X0119060Y0527808D01*
X0118472Y0528020D01*
X0117879Y0528217D01*
X0117282Y0528400D01*
X0116681Y0528568D01*
X0116076Y0528722D01*
X0115467Y0528861D01*
X0114855Y0528985D01*
X0114240Y0529094D01*
X0113622Y0529188D01*
X0113003Y0529267D01*
X0112381Y0529331D01*
X0111759Y0529379D01*
X0111135Y0529413D01*
X0110511Y0529431D01*
X0109887Y0529434D01*
X0109262Y0529422D01*
X0108638Y0529395D01*
X0108015Y0529353D01*
X0107393Y0529295D01*
X0106773Y0529223D01*
X0106155Y0529135D01*
X0105539Y0529032D01*
X0104925Y0528915D01*
X0104315Y0528782D01*
X0103708Y0528635D01*
X0103105Y0528472D01*
X0102506Y0528296D01*
X0101912Y0528104D01*
X0101322Y0527899D01*
X0100737Y0527679D01*
X0100158Y0527445D01*
X0099585Y0527197D01*
X0099018Y0526935D01*
X0098458Y0526659D01*
X0097905Y0526370D01*
X0097358Y0526067D01*
X0096819Y0525751D01*
X0096289Y0525422D01*
X0515580Y0121879D02*
X0515289Y0122163D01*
X0514991Y0122440D01*
X0514686Y0122709D01*
X0514375Y0122972D01*
X0514058Y0123226D01*
X0513734Y0123473D01*
X0513405Y0123711D01*
X0513070Y0123942D01*
X0512729Y0124164D01*
X0512383Y0124378D01*
X0512032Y0124584D01*
X0511676Y0124781D01*
X0511316Y0124969D01*
X0510951Y0125148D01*
X0510581Y0125319D01*
X0510208Y0125480D01*
X0509831Y0125632D01*
X0509450Y0125775D01*
X0509066Y0125909D01*
X0508678Y0126033D01*
X0508288Y0126148D01*
X0507895Y0126253D01*
X0507500Y0126349D01*
X0507102Y0126435D01*
X0506703Y0126511D01*
X0506302Y0126578D01*
X0505899Y0126635D01*
X0505495Y0126682D01*
X0505090Y0126719D01*
X0504684Y0126746D01*
X0504277Y0126763D01*
X0503871Y0126771D01*
X0503464Y0126768D01*
X0503057Y0126756D01*
X0502651Y0126734D01*
X0502246Y0126701D01*
X0501841Y0126659D01*
X0501438Y0126608D01*
X0501036Y0126546D01*
X0500635Y0126474D01*
X0500237Y0126393D01*
X0499840Y0126302D01*
X0499446Y0126202D01*
X0499054Y0126092D01*
X0498666Y0125972D01*
X0498280Y0125843D01*
X0497897Y0125705D01*
X0497518Y0125557D01*
X0497143Y0125400D01*
X0496772Y0125235D01*
X0496404Y0125060D01*
X0496041Y0124876D01*
X0495683Y0124683D01*
X0495330Y0124482D01*
X0494981Y0124272D01*
X0494638Y0124054D01*
X0494300Y0123828D01*
X0493968Y0123593D01*
X0493641Y0123350D01*
X0493321Y0123100D01*
X0493007Y0122841D01*
X0492699Y0122576D01*
X0492397Y0122302D01*
X0492103Y0122022D01*
X0491815Y0121734D01*
X0491535Y0121440D01*
X0491261Y0121138D01*
X0490996Y0120830D01*
X0490737Y0120516D01*
X0490487Y0120196D01*
X0490244Y0119869D01*
X0490009Y0119537D01*
X0489783Y0119199D01*
X0489565Y0118856D01*
X0489355Y0118507D01*
X0489154Y0118154D01*
X0488961Y0117796D01*
X0488777Y0117433D01*
X0488602Y0117065D01*
X0488437Y0116694D01*
X0488280Y0116319D01*
X0488132Y0115940D01*
X0487994Y0115557D01*
X0487865Y0115171D01*
X0487745Y0114783D01*
X0487635Y0114391D01*
X0487535Y0113997D01*
X0487444Y0113600D01*
X0487363Y0113202D01*
X0487291Y0112801D01*
X0487229Y0112399D01*
X0487178Y0111996D01*
X0487136Y0111591D01*
X0487103Y0111186D01*
X0487081Y0110780D01*
X0487069Y0110373D01*
X0487066Y0109966D01*
X0487074Y0109560D01*
X0487091Y0109153D01*
X0487118Y0108747D01*
X0487155Y0108342D01*
X0487202Y0107938D01*
X0487259Y0107535D01*
X0487326Y0107134D01*
X0487402Y0106735D01*
X0487488Y0106337D01*
X0487584Y0105942D01*
X0487689Y0105549D01*
X0487804Y0105159D01*
X0487928Y0104771D01*
X0488062Y0104387D01*
X0488205Y0104006D01*
X0488357Y0103629D01*
X0488518Y0103256D01*
X0488689Y0102886D01*
X0488868Y0102521D01*
X0489056Y0102161D01*
X0489253Y0101805D01*
X0489459Y0101454D01*
X0489673Y0101108D01*
X0489895Y0100767D01*
X0490126Y0100432D01*
X0490364Y0100103D01*
X0490611Y0099779D01*
X0490865Y0099462D01*
X0491128Y0099151D01*
X0491397Y0098846D01*
X0491674Y0098548D01*
X0491958Y0098257D01*
D11*
X0387095Y0263611D02*
X0340383Y0263611D01*
X0340383Y0259674D01*
X0340383Y0263611D02*
X0334477Y0263611D01*
X0331524Y0263611D01*
X0331524Y0259674D01*
X0331524Y0263611D02*
X0318729Y0263611D01*
X0330540Y0297076D01*
X0287233Y0297076D01*
X0275422Y0263611D01*
X0273454Y0263611D02*
X0273454Y0259674D01*
X0273454Y0263611D02*
X0241957Y0263611D01*
X0228178Y0269517D01*
X0228178Y0290186D01*
X0245894Y0290186D01*
X0245894Y0291170D01*
X0216898Y0291170D01*
X0216800Y0291172D01*
X0216702Y0291178D01*
X0216604Y0291187D01*
X0216507Y0291201D01*
X0216410Y0291218D01*
X0216314Y0291239D01*
X0216219Y0291264D01*
X0216125Y0291292D01*
X0216033Y0291325D01*
X0215941Y0291360D01*
X0215851Y0291400D01*
X0215763Y0291442D01*
X0215676Y0291489D01*
X0215592Y0291538D01*
X0215509Y0291591D01*
X0215429Y0291647D01*
X0215350Y0291707D01*
X0215274Y0291769D01*
X0215201Y0291834D01*
X0215130Y0291902D01*
X0215062Y0291973D01*
X0214997Y0292046D01*
X0214935Y0292122D01*
X0214875Y0292201D01*
X0214819Y0292281D01*
X0214766Y0292364D01*
X0214717Y0292448D01*
X0214670Y0292535D01*
X0214628Y0292623D01*
X0214588Y0292713D01*
X0214553Y0292805D01*
X0214520Y0292897D01*
X0214492Y0292991D01*
X0214467Y0293086D01*
X0214446Y0293182D01*
X0214429Y0293279D01*
X0214415Y0293376D01*
X0214406Y0293474D01*
X0214400Y0293572D01*
X0214398Y0293670D01*
X0214398Y0320166D01*
X0214400Y0320264D01*
X0214406Y0320362D01*
X0214415Y0320460D01*
X0214429Y0320557D01*
X0214446Y0320654D01*
X0214467Y0320750D01*
X0214492Y0320845D01*
X0214520Y0320939D01*
X0214553Y0321031D01*
X0214588Y0321123D01*
X0214628Y0321213D01*
X0214670Y0321301D01*
X0214717Y0321388D01*
X0214766Y0321472D01*
X0214819Y0321555D01*
X0214875Y0321635D01*
X0214935Y0321714D01*
X0214997Y0321790D01*
X0215062Y0321863D01*
X0215130Y0321934D01*
X0215201Y0322002D01*
X0215274Y0322067D01*
X0215350Y0322129D01*
X0215429Y0322189D01*
X0215509Y0322245D01*
X0215592Y0322298D01*
X0215676Y0322347D01*
X0215763Y0322394D01*
X0215851Y0322436D01*
X0215941Y0322476D01*
X0216033Y0322511D01*
X0216125Y0322544D01*
X0216219Y0322572D01*
X0216314Y0322597D01*
X0216410Y0322618D01*
X0216507Y0322635D01*
X0216604Y0322649D01*
X0216702Y0322658D01*
X0216800Y0322664D01*
X0216898Y0322666D01*
X0245894Y0322666D01*
X0245894Y0323650D01*
X0228178Y0323650D01*
X0228178Y0344320D01*
X0241957Y0350225D01*
X0273454Y0350225D01*
X0273454Y0354162D01*
X0273454Y0350225D02*
X0282312Y0350225D01*
X0282312Y0354162D01*
X0282312Y0350225D02*
X0318729Y0350225D01*
X0330540Y0316761D01*
X0287233Y0316761D01*
X0275422Y0350225D01*
X0273454Y0354162D02*
X0273456Y0354293D01*
X0273462Y0354424D01*
X0273471Y0354555D01*
X0273485Y0354686D01*
X0273503Y0354816D01*
X0273524Y0354945D01*
X0273549Y0355074D01*
X0273578Y0355202D01*
X0273611Y0355329D01*
X0273647Y0355456D01*
X0273687Y0355580D01*
X0273731Y0355704D01*
X0273779Y0355827D01*
X0273830Y0355947D01*
X0273885Y0356067D01*
X0273943Y0356184D01*
X0274004Y0356300D01*
X0274069Y0356414D01*
X0274138Y0356526D01*
X0274210Y0356636D01*
X0274284Y0356744D01*
X0274363Y0356850D01*
X0274444Y0356953D01*
X0274528Y0357053D01*
X0274615Y0357151D01*
X0274705Y0357247D01*
X0274798Y0357340D01*
X0274894Y0357430D01*
X0274992Y0357517D01*
X0275092Y0357601D01*
X0275195Y0357682D01*
X0275301Y0357761D01*
X0275409Y0357835D01*
X0275519Y0357907D01*
X0275631Y0357976D01*
X0275745Y0358041D01*
X0275861Y0358102D01*
X0275978Y0358160D01*
X0276098Y0358215D01*
X0276218Y0358266D01*
X0276341Y0358314D01*
X0276465Y0358358D01*
X0276589Y0358398D01*
X0276716Y0358434D01*
X0276843Y0358467D01*
X0276971Y0358496D01*
X0277100Y0358521D01*
X0277229Y0358542D01*
X0277359Y0358560D01*
X0277490Y0358574D01*
X0277621Y0358583D01*
X0277752Y0358589D01*
X0277883Y0358591D01*
X0278014Y0358589D01*
X0278145Y0358583D01*
X0278276Y0358574D01*
X0278407Y0358560D01*
X0278537Y0358542D01*
X0278666Y0358521D01*
X0278795Y0358496D01*
X0278923Y0358467D01*
X0279050Y0358434D01*
X0279177Y0358398D01*
X0279301Y0358358D01*
X0279425Y0358314D01*
X0279548Y0358266D01*
X0279668Y0358215D01*
X0279788Y0358160D01*
X0279905Y0358102D01*
X0280021Y0358041D01*
X0280135Y0357976D01*
X0280247Y0357907D01*
X0280357Y0357835D01*
X0280465Y0357761D01*
X0280571Y0357682D01*
X0280674Y0357601D01*
X0280774Y0357517D01*
X0280872Y0357430D01*
X0280968Y0357340D01*
X0281061Y0357247D01*
X0281151Y0357151D01*
X0281238Y0357053D01*
X0281322Y0356953D01*
X0281403Y0356850D01*
X0281482Y0356744D01*
X0281556Y0356636D01*
X0281628Y0356526D01*
X0281697Y0356414D01*
X0281762Y0356300D01*
X0281823Y0356184D01*
X0281881Y0356067D01*
X0281936Y0355947D01*
X0281987Y0355827D01*
X0282035Y0355704D01*
X0282079Y0355580D01*
X0282119Y0355456D01*
X0282155Y0355329D01*
X0282188Y0355202D01*
X0282217Y0355074D01*
X0282242Y0354945D01*
X0282263Y0354816D01*
X0282281Y0354686D01*
X0282295Y0354555D01*
X0282304Y0354424D01*
X0282310Y0354293D01*
X0282312Y0354162D01*
X0259674Y0350225D02*
X0271485Y0316761D01*
X0271485Y0297076D01*
X0259674Y0263611D01*
X0273454Y0263611D02*
X0282312Y0263611D01*
X0318729Y0263611D01*
X0334477Y0263611D02*
X0346288Y0297076D01*
X0346288Y0316761D01*
X0334477Y0350225D01*
X0340383Y0350225D01*
X0340383Y0354162D01*
X0340383Y0350225D02*
X0387095Y0350225D01*
X0387193Y0350223D01*
X0387291Y0350217D01*
X0387389Y0350208D01*
X0387486Y0350194D01*
X0387583Y0350177D01*
X0387679Y0350156D01*
X0387774Y0350131D01*
X0387868Y0350103D01*
X0387960Y0350070D01*
X0388052Y0350035D01*
X0388142Y0349995D01*
X0388230Y0349953D01*
X0388317Y0349906D01*
X0388401Y0349857D01*
X0388484Y0349804D01*
X0388564Y0349748D01*
X0388643Y0349688D01*
X0388719Y0349626D01*
X0388792Y0349561D01*
X0388863Y0349493D01*
X0388931Y0349422D01*
X0388996Y0349349D01*
X0389058Y0349273D01*
X0389118Y0349194D01*
X0389174Y0349114D01*
X0389227Y0349031D01*
X0389276Y0348947D01*
X0389323Y0348860D01*
X0389365Y0348772D01*
X0389405Y0348682D01*
X0389440Y0348590D01*
X0389473Y0348498D01*
X0389501Y0348404D01*
X0389526Y0348309D01*
X0389547Y0348213D01*
X0389564Y0348116D01*
X0389578Y0348019D01*
X0389587Y0347921D01*
X0389593Y0347823D01*
X0389595Y0347725D01*
X0389595Y0326603D01*
X0399438Y0326603D01*
X0399438Y0312824D01*
X0403375Y0312824D01*
X0403375Y0301013D01*
X0399438Y0301013D01*
X0399438Y0287233D01*
X0389595Y0287233D01*
X0389595Y0266111D01*
X0389593Y0266013D01*
X0389587Y0265915D01*
X0389578Y0265817D01*
X0389564Y0265720D01*
X0389547Y0265623D01*
X0389526Y0265527D01*
X0389501Y0265432D01*
X0389473Y0265338D01*
X0389440Y0265246D01*
X0389405Y0265154D01*
X0389365Y0265064D01*
X0389323Y0264976D01*
X0389276Y0264889D01*
X0389227Y0264805D01*
X0389174Y0264722D01*
X0389118Y0264642D01*
X0389058Y0264563D01*
X0388996Y0264487D01*
X0388931Y0264414D01*
X0388863Y0264343D01*
X0388792Y0264275D01*
X0388719Y0264210D01*
X0388643Y0264148D01*
X0388564Y0264088D01*
X0388484Y0264032D01*
X0388401Y0263979D01*
X0388317Y0263930D01*
X0388230Y0263883D01*
X0388142Y0263841D01*
X0388052Y0263801D01*
X0387960Y0263766D01*
X0387868Y0263733D01*
X0387774Y0263705D01*
X0387679Y0263680D01*
X0387583Y0263659D01*
X0387486Y0263642D01*
X0387389Y0263628D01*
X0387291Y0263619D01*
X0387193Y0263613D01*
X0387095Y0263611D01*
X0385127Y0265580D02*
X0375816Y0265580D01*
X0387627Y0277391D01*
X0387627Y0268080D01*
X0387625Y0267982D01*
X0387619Y0267884D01*
X0387610Y0267786D01*
X0387596Y0267689D01*
X0387579Y0267592D01*
X0387558Y0267496D01*
X0387533Y0267401D01*
X0387505Y0267307D01*
X0387472Y0267215D01*
X0387437Y0267123D01*
X0387397Y0267033D01*
X0387355Y0266945D01*
X0387308Y0266858D01*
X0387259Y0266774D01*
X0387206Y0266691D01*
X0387150Y0266611D01*
X0387090Y0266532D01*
X0387028Y0266456D01*
X0386963Y0266383D01*
X0386895Y0266312D01*
X0386824Y0266244D01*
X0386751Y0266179D01*
X0386675Y0266117D01*
X0386596Y0266057D01*
X0386516Y0266001D01*
X0386433Y0265948D01*
X0386349Y0265899D01*
X0386262Y0265852D01*
X0386174Y0265810D01*
X0386084Y0265770D01*
X0385992Y0265735D01*
X0385900Y0265702D01*
X0385806Y0265674D01*
X0385711Y0265649D01*
X0385615Y0265628D01*
X0385518Y0265611D01*
X0385421Y0265597D01*
X0385323Y0265588D01*
X0385225Y0265582D01*
X0385127Y0265580D01*
X0389595Y0287233D02*
X0389595Y0326603D01*
X0387627Y0336446D02*
X0387627Y0345757D01*
X0387625Y0345855D01*
X0387619Y0345953D01*
X0387610Y0346051D01*
X0387596Y0346148D01*
X0387579Y0346245D01*
X0387558Y0346341D01*
X0387533Y0346436D01*
X0387505Y0346530D01*
X0387472Y0346622D01*
X0387437Y0346714D01*
X0387397Y0346804D01*
X0387355Y0346892D01*
X0387308Y0346979D01*
X0387259Y0347063D01*
X0387206Y0347146D01*
X0387150Y0347226D01*
X0387090Y0347305D01*
X0387028Y0347381D01*
X0386963Y0347454D01*
X0386895Y0347525D01*
X0386824Y0347593D01*
X0386751Y0347658D01*
X0386675Y0347720D01*
X0386596Y0347780D01*
X0386516Y0347836D01*
X0386433Y0347889D01*
X0386349Y0347938D01*
X0386262Y0347985D01*
X0386174Y0348027D01*
X0386084Y0348067D01*
X0385992Y0348102D01*
X0385900Y0348135D01*
X0385806Y0348163D01*
X0385711Y0348188D01*
X0385615Y0348209D01*
X0385518Y0348226D01*
X0385421Y0348240D01*
X0385323Y0348249D01*
X0385225Y0348255D01*
X0385127Y0348257D01*
X0375816Y0348257D01*
X0387627Y0336446D01*
X0399438Y0312824D02*
X0399438Y0301013D01*
X0340383Y0259674D02*
X0340381Y0259543D01*
X0340375Y0259412D01*
X0340366Y0259281D01*
X0340352Y0259150D01*
X0340334Y0259020D01*
X0340313Y0258891D01*
X0340288Y0258762D01*
X0340259Y0258634D01*
X0340226Y0258507D01*
X0340190Y0258380D01*
X0340150Y0258256D01*
X0340106Y0258132D01*
X0340058Y0258009D01*
X0340007Y0257889D01*
X0339952Y0257769D01*
X0339894Y0257652D01*
X0339833Y0257536D01*
X0339768Y0257422D01*
X0339699Y0257310D01*
X0339627Y0257200D01*
X0339553Y0257092D01*
X0339474Y0256986D01*
X0339393Y0256883D01*
X0339309Y0256783D01*
X0339222Y0256685D01*
X0339132Y0256589D01*
X0339039Y0256496D01*
X0338943Y0256406D01*
X0338845Y0256319D01*
X0338745Y0256235D01*
X0338642Y0256154D01*
X0338536Y0256075D01*
X0338428Y0256001D01*
X0338318Y0255929D01*
X0338206Y0255860D01*
X0338092Y0255795D01*
X0337976Y0255734D01*
X0337859Y0255676D01*
X0337739Y0255621D01*
X0337619Y0255570D01*
X0337496Y0255522D01*
X0337372Y0255478D01*
X0337248Y0255438D01*
X0337121Y0255402D01*
X0336994Y0255369D01*
X0336866Y0255340D01*
X0336737Y0255315D01*
X0336608Y0255294D01*
X0336478Y0255276D01*
X0336347Y0255262D01*
X0336216Y0255253D01*
X0336085Y0255247D01*
X0335954Y0255245D01*
X0335823Y0255247D01*
X0335692Y0255253D01*
X0335561Y0255262D01*
X0335430Y0255276D01*
X0335300Y0255294D01*
X0335171Y0255315D01*
X0335042Y0255340D01*
X0334914Y0255369D01*
X0334787Y0255402D01*
X0334660Y0255438D01*
X0334536Y0255478D01*
X0334412Y0255522D01*
X0334289Y0255570D01*
X0334169Y0255621D01*
X0334049Y0255676D01*
X0333932Y0255734D01*
X0333816Y0255795D01*
X0333702Y0255860D01*
X0333590Y0255929D01*
X0333480Y0256001D01*
X0333372Y0256075D01*
X0333266Y0256154D01*
X0333163Y0256235D01*
X0333063Y0256319D01*
X0332965Y0256406D01*
X0332869Y0256496D01*
X0332776Y0256589D01*
X0332686Y0256685D01*
X0332599Y0256783D01*
X0332515Y0256883D01*
X0332434Y0256986D01*
X0332355Y0257092D01*
X0332281Y0257200D01*
X0332209Y0257310D01*
X0332140Y0257422D01*
X0332075Y0257536D01*
X0332014Y0257652D01*
X0331956Y0257769D01*
X0331901Y0257889D01*
X0331850Y0258009D01*
X0331802Y0258132D01*
X0331758Y0258256D01*
X0331718Y0258380D01*
X0331682Y0258507D01*
X0331649Y0258634D01*
X0331620Y0258762D01*
X0331595Y0258891D01*
X0331574Y0259020D01*
X0331556Y0259150D01*
X0331542Y0259281D01*
X0331533Y0259412D01*
X0331527Y0259543D01*
X0331525Y0259674D01*
X0282312Y0259674D02*
X0282312Y0263611D01*
X0282312Y0259674D02*
X0282310Y0259543D01*
X0282304Y0259412D01*
X0282295Y0259281D01*
X0282281Y0259150D01*
X0282263Y0259020D01*
X0282242Y0258891D01*
X0282217Y0258762D01*
X0282188Y0258634D01*
X0282155Y0258507D01*
X0282119Y0258380D01*
X0282079Y0258256D01*
X0282035Y0258132D01*
X0281987Y0258009D01*
X0281936Y0257889D01*
X0281881Y0257769D01*
X0281823Y0257652D01*
X0281762Y0257536D01*
X0281697Y0257422D01*
X0281628Y0257310D01*
X0281556Y0257200D01*
X0281482Y0257092D01*
X0281403Y0256986D01*
X0281322Y0256883D01*
X0281238Y0256783D01*
X0281151Y0256685D01*
X0281061Y0256589D01*
X0280968Y0256496D01*
X0280872Y0256406D01*
X0280774Y0256319D01*
X0280674Y0256235D01*
X0280571Y0256154D01*
X0280465Y0256075D01*
X0280357Y0256001D01*
X0280247Y0255929D01*
X0280135Y0255860D01*
X0280021Y0255795D01*
X0279905Y0255734D01*
X0279788Y0255676D01*
X0279668Y0255621D01*
X0279548Y0255570D01*
X0279425Y0255522D01*
X0279301Y0255478D01*
X0279177Y0255438D01*
X0279050Y0255402D01*
X0278923Y0255369D01*
X0278795Y0255340D01*
X0278666Y0255315D01*
X0278537Y0255294D01*
X0278407Y0255276D01*
X0278276Y0255262D01*
X0278145Y0255253D01*
X0278014Y0255247D01*
X0277883Y0255245D01*
X0277752Y0255247D01*
X0277621Y0255253D01*
X0277490Y0255262D01*
X0277359Y0255276D01*
X0277229Y0255294D01*
X0277100Y0255315D01*
X0276971Y0255340D01*
X0276843Y0255369D01*
X0276716Y0255402D01*
X0276589Y0255438D01*
X0276465Y0255478D01*
X0276341Y0255522D01*
X0276218Y0255570D01*
X0276098Y0255621D01*
X0275978Y0255676D01*
X0275861Y0255734D01*
X0275745Y0255795D01*
X0275631Y0255860D01*
X0275519Y0255929D01*
X0275409Y0256001D01*
X0275301Y0256075D01*
X0275195Y0256154D01*
X0275092Y0256235D01*
X0274992Y0256319D01*
X0274894Y0256406D01*
X0274798Y0256496D01*
X0274705Y0256589D01*
X0274615Y0256685D01*
X0274528Y0256783D01*
X0274444Y0256883D01*
X0274363Y0256986D01*
X0274284Y0257092D01*
X0274210Y0257200D01*
X0274138Y0257310D01*
X0274069Y0257422D01*
X0274004Y0257536D01*
X0273943Y0257652D01*
X0273885Y0257769D01*
X0273830Y0257889D01*
X0273779Y0258009D01*
X0273731Y0258132D01*
X0273687Y0258256D01*
X0273647Y0258380D01*
X0273611Y0258507D01*
X0273578Y0258634D01*
X0273549Y0258762D01*
X0273524Y0258891D01*
X0273503Y0259020D01*
X0273485Y0259150D01*
X0273471Y0259281D01*
X0273462Y0259412D01*
X0273456Y0259543D01*
X0273454Y0259674D01*
X0318729Y0350225D02*
X0331524Y0350225D01*
X0331524Y0354162D01*
X0331524Y0350225D02*
X0334477Y0350225D01*
X0331525Y0354162D02*
X0331527Y0354293D01*
X0331533Y0354424D01*
X0331542Y0354555D01*
X0331556Y0354686D01*
X0331574Y0354816D01*
X0331595Y0354945D01*
X0331620Y0355074D01*
X0331649Y0355202D01*
X0331682Y0355329D01*
X0331718Y0355456D01*
X0331758Y0355580D01*
X0331802Y0355704D01*
X0331850Y0355827D01*
X0331901Y0355947D01*
X0331956Y0356067D01*
X0332014Y0356184D01*
X0332075Y0356300D01*
X0332140Y0356414D01*
X0332209Y0356526D01*
X0332281Y0356636D01*
X0332355Y0356744D01*
X0332434Y0356850D01*
X0332515Y0356953D01*
X0332599Y0357053D01*
X0332686Y0357151D01*
X0332776Y0357247D01*
X0332869Y0357340D01*
X0332965Y0357430D01*
X0333063Y0357517D01*
X0333163Y0357601D01*
X0333266Y0357682D01*
X0333372Y0357761D01*
X0333480Y0357835D01*
X0333590Y0357907D01*
X0333702Y0357976D01*
X0333816Y0358041D01*
X0333932Y0358102D01*
X0334049Y0358160D01*
X0334169Y0358215D01*
X0334289Y0358266D01*
X0334412Y0358314D01*
X0334536Y0358358D01*
X0334660Y0358398D01*
X0334787Y0358434D01*
X0334914Y0358467D01*
X0335042Y0358496D01*
X0335171Y0358521D01*
X0335300Y0358542D01*
X0335430Y0358560D01*
X0335561Y0358574D01*
X0335692Y0358583D01*
X0335823Y0358589D01*
X0335954Y0358591D01*
X0336085Y0358589D01*
X0336216Y0358583D01*
X0336347Y0358574D01*
X0336478Y0358560D01*
X0336608Y0358542D01*
X0336737Y0358521D01*
X0336866Y0358496D01*
X0336994Y0358467D01*
X0337121Y0358434D01*
X0337248Y0358398D01*
X0337372Y0358358D01*
X0337496Y0358314D01*
X0337619Y0358266D01*
X0337739Y0358215D01*
X0337859Y0358160D01*
X0337976Y0358102D01*
X0338092Y0358041D01*
X0338206Y0357976D01*
X0338318Y0357907D01*
X0338428Y0357835D01*
X0338536Y0357761D01*
X0338642Y0357682D01*
X0338745Y0357601D01*
X0338845Y0357517D01*
X0338943Y0357430D01*
X0339039Y0357340D01*
X0339132Y0357247D01*
X0339222Y0357151D01*
X0339309Y0357053D01*
X0339393Y0356953D01*
X0339474Y0356850D01*
X0339553Y0356744D01*
X0339627Y0356636D01*
X0339699Y0356526D01*
X0339768Y0356414D01*
X0339833Y0356300D01*
X0339894Y0356184D01*
X0339952Y0356067D01*
X0340007Y0355947D01*
X0340058Y0355827D01*
X0340106Y0355704D01*
X0340150Y0355580D01*
X0340190Y0355456D01*
X0340226Y0355329D01*
X0340259Y0355202D01*
X0340288Y0355074D01*
X0340313Y0354945D01*
X0340334Y0354816D01*
X0340352Y0354686D01*
X0340366Y0354555D01*
X0340375Y0354424D01*
X0340381Y0354293D01*
X0340383Y0354162D01*
D12*
X0318228Y0354618D02*
X0315926Y0354618D01*
X0315159Y0355385D01*
X0315159Y0356153D01*
X0315926Y0356920D01*
X0318228Y0356920D01*
X0318228Y0354618D02*
X0318228Y0359222D01*
X0315926Y0359222D01*
X0315159Y0358455D01*
X0315159Y0357687D01*
X0315926Y0356920D01*
X0313624Y0356920D02*
X0310555Y0356920D01*
X0310555Y0357687D02*
X0310555Y0354618D01*
X0313624Y0354618D02*
X0313624Y0357687D01*
X0312089Y0359222D01*
X0310555Y0357687D01*
X0309020Y0359222D02*
X0305951Y0359222D01*
X0307485Y0359222D02*
X0307485Y0354618D01*
X0302882Y0354618D02*
X0302882Y0359222D01*
X0304416Y0359222D02*
X0301347Y0359222D01*
X0299812Y0357687D02*
X0298278Y0359222D01*
X0298278Y0354618D01*
X0299812Y0354618D02*
X0296743Y0354618D01*
X0297287Y0240955D02*
X0297287Y0237885D01*
X0298822Y0239420D02*
X0295753Y0239420D01*
X0308253Y0239420D02*
X0311322Y0239420D01*
M02*
