%
M48
M72
T01C0.01500
T02C0.02362
T03C0.03937
T04C0.04000
T05C0.04331
T06C0.05512
%
T01
X281328Y243926
X334477Y303965
X331032Y306918
X334477Y314792
X338414Y316761
X353178Y320206
X358591Y321682
X362528Y321682
X356623Y312331
X361052Y305934
X357607Y303965
X353178Y293139
X349241Y293139
X319713Y319713
X318729Y340383
X337430Y337922
X301013Y333493
X289202Y349241
X299044Y363020
X373847Y331524
X373355Y326603
X392056Y322174
X442745Y366957
X402981Y254753
X449339Y249733
X205540Y318729
T02
X192745Y236052
X196682Y236052
X224241Y239989
X228178Y239989
X239989Y239989
X243926Y239989
X255737Y263611
X276209Y273847
X295107Y289202
X278178Y303375
X304950Y324635
X322666Y308887
X340383Y310855
X340383Y330540
X356131Y330540
X370501Y345698
X379753Y346288
X401406Y342351
X401406Y338414
X401406Y334477
X401406Y330540
X401406Y326603
X401406Y322666
X401406Y312824
X401406Y308887
X405343Y308887
X409280Y308887
X413217Y308887
X417154Y308887
X417154Y312824
X421091Y312824
X425028Y312824
X425028Y308887
X421091Y308887
X425028Y330540
X425028Y334477
X425028Y338414
X425028Y342351
X421091Y342351
X417154Y342351
X413217Y342351
X409280Y342351
X405343Y342351
X421091Y350225
X421091Y377784
X417154Y377784
X393532Y373847
X389595Y373847
X373847Y373847
X369910Y373847
X379753Y316761
X369910Y308887
X371879Y289202
X362036Y289202
X381721Y269517
X390093Y289522
X415186Y267548
X425028Y239989
X405343Y239989
X401406Y239989
X393532Y239989
X389595Y239989
X373847Y239989
X369910Y239989
X346288Y264792
X320698Y262824
X318729Y281328
X285265Y340383
X251013Y340383
X243926Y373847
X239989Y373847
X228178Y373847
X224241Y373847
X216367Y373847
X212430Y373847
X180540Y360461
X234083Y301013
X245894Y284477
X232115Y267548
T03
X296918Y249418
X306918Y249418
T04
X430855Y268729
X440855Y268729
X450855Y268729
X450855Y278729
X440855Y278729
X430855Y278729
X162942Y276288
X162942Y286288
X162942Y296288
X162942Y316918
X162942Y326918
X162942Y336918
X162942Y346918
X162942Y356918
X162942Y366918
X162942Y266288
X162942Y256288
X162942Y246288
T05
X252824Y249438
X262824Y249438
X261524Y370816
X271524Y370816
X281524Y370816
X291524Y370816
X301524Y370816
X311524Y370816
X321524Y370816
X331524Y370816
X341524Y370816
X351524Y370816
T06
X335855Y354359
X277981Y354359
X277981Y259477
X335855Y259477
M30
